<svg xmlns="http://www.w3.org/2000/svg" width="75.535" height="75.535" viewBox="0 0 75.535 75.535"><defs><style>.a{fill:#eb1a2d;}</style></defs><path class="a" d="M45.734,75.535H17.7A17.724,17.724,0,0,1,0,57.831V17.7A17.724,17.724,0,0,1,17.7,0H57.831a17.724,17.724,0,0,1,17.7,17.7V45.955a2.951,2.951,0,1,1-5.9,0V17.7a11.816,11.816,0,0,0-11.8-11.8H17.7A11.816,11.816,0,0,0,5.9,17.7V57.831a11.816,11.816,0,0,0,11.8,11.8H45.734a2.951,2.951,0,0,1,0,5.9ZM60.782,18.589a2.951,2.951,0,0,0-2.951-2.951h-27a2.951,2.951,0,0,0,0,5.9h27A2.951,2.951,0,0,0,60.782,18.589Zm0,11.8a2.951,2.951,0,0,0-2.951-2.951H17.7a2.951,2.951,0,1,0,0,5.9H57.831A2.951,2.951,0,0,0,60.782,30.391Zm-29.506,11.8a2.951,2.951,0,0,0-2.951-2.951H17.7a2.951,2.951,0,0,0,0,5.9H28.326A2.951,2.951,0,0,0,31.276,42.193Zm-16.523-23.9a3.688,3.688,0,1,0,3.688-3.688A3.688,3.688,0,0,0,14.753,18.294ZM72.381,72.38a10.782,10.782,0,0,0,0-15.23L62.037,46.807a21.271,21.271,0,0,0-10.906-5.836L42.772,39.3A2.951,2.951,0,0,0,39.3,42.772l1.671,8.36a21.273,21.273,0,0,0,5.836,10.906L57.15,72.381a10.77,10.77,0,0,0,15.231,0ZM49.975,46.758a15.387,15.387,0,0,1,7.89,4.222L68.208,61.323a4.868,4.868,0,1,1-6.885,6.885L50.98,57.865a15.389,15.389,0,0,1-4.222-7.89l-.8-4.021Z"/></svg>