<svg xmlns="http://www.w3.org/2000/svg" width="150" height="150" viewBox="0 0 150 150"><defs><style>.a{fill:#fafafa;stroke:#eee;}.b{fill:#eb1a2d;}.c{stroke:none;}.d{fill:none;}</style></defs><g transform="translate(-399 -2905)"><g class="a" transform="translate(399 2905)"><circle class="c" cx="75" cy="75" r="75"/><circle class="d" cx="75" cy="75" r="74.5"/></g><g transform="translate(385 2943)"><path class="b" d="M224.066,186.533a6.533,6.533,0,1,0-13.066,0v2.178h13.066Z" transform="translate(-128.224 -153.869)"/><path d="M63.178,74.328H115.44a2.176,2.176,0,0,0,2.178-2.178V17.421h-19.6a2.176,2.176,0,0,1-2.178-2.178V0H63.178A2.176,2.176,0,0,0,61,2.178V72.151A2.176,2.176,0,0,0,63.178,74.328ZM74.066,37.019a2.176,2.176,0,0,1,2.178-2.178h2.178V32.664a10.888,10.888,0,1,1,21.776,0v2.178h2.178a2.176,2.176,0,0,1,2.178,2.178V58.795a2.176,2.176,0,0,1-2.178,2.178H76.243a2.176,2.176,0,0,1-2.178-2.178Z"/><path class="b" d="M202.776,270H181v17.421h21.776Zm-8.71,10.888a2.178,2.178,0,1,1-4.355,0v-4.355a2.178,2.178,0,1,1,4.355,0Z" transform="translate(-102.579 -230.803)"/><path class="b" d="M331,7.507V19.483h15.968Z" transform="translate(-230.803 -6.417)"/></g></g></svg>