<svg xmlns="http://www.w3.org/2000/svg" width="27.493" height="27.493" viewBox="0 0 27.493 27.493">
  <g id="edit_1_" data-name="edit (1)" transform="translate(0 -0.004)">
    <g id="Group_1510" data-name="Group 1510" transform="translate(0 1.968)">
      <g id="Group_1509" data-name="Group 1509">
        <path id="Path_1223" data-name="Path 1223" d="M22.583,45.92a.982.982,0,0,0-.982.982V56.72a.982.982,0,0,1-.982.982H2.946a.982.982,0,0,1-.982-.982V37.083a.982.982,0,0,1,.982-.982H14.728a.982.982,0,1,0,0-1.964H2.946A2.946,2.946,0,0,0,0,37.083V56.72a2.946,2.946,0,0,0,2.946,2.946H20.62a2.946,2.946,0,0,0,2.946-2.946V46.9A.982.982,0,0,0,22.583,45.92Z" transform="translate(0 -34.137)" fill="#eb1a2d"/>
      </g>
    </g>
    <g id="Group_1512" data-name="Group 1512" transform="translate(5.892 0.004)">
      <g id="Group_1511" data-name="Group 1511" transform="translate(0 0)">
        <path id="Path_1224" data-name="Path 1224" d="M122.909,1.1a3.758,3.758,0,0,0-5.316,0L104.66,14.038a.993.993,0,0,0-.237.384l-1.964,5.891a.982.982,0,0,0,.931,1.292,1,1,0,0,0,.31-.05l5.891-1.964a.982.982,0,0,0,.384-.238L122.909,6.42A3.759,3.759,0,0,0,122.909,1.1Zm-1.389,3.928L108.756,17.8l-3.814,1.273,1.27-3.809L118.981,2.5a1.794,1.794,0,1,1,2.539,2.535Z" transform="translate(-102.409 -0.004)" fill="#eb1a2d"/>
      </g>
    </g>
  </g>
</svg>
