<svg xmlns="http://www.w3.org/2000/svg" width="150" height="150" viewBox="0 0 150 150"><defs><style>.a{fill:#fafafa;stroke:#eee;}.b{fill:#030104;}.c{fill:#eb1a2d;}.d{stroke:none;}.e{fill:none;}</style></defs><g transform="translate(-399 -2905)"><g class="a" transform="translate(399 2905)"><circle class="d" cx="75" cy="75" r="75"/><circle class="e" cx="75" cy="75" r="74.5"/></g><g transform="translate(440.988 2948)"><g transform="translate(0.012)"><rect class="b" width="18" height="4" transform="translate(31 32)"/><path class="b" d="M34.047,57.587H7.86a2.621,2.621,0,0,1-2.616-2.618V10.47H57.566V32.55A7.7,7.7,0,0,1,62.8,31.9V7.853A7.852,7.852,0,0,0,54.95,0H7.86A7.852,7.852,0,0,0,.012,7.853V54.969A7.853,7.853,0,0,0,7.86,62.822H32.517Z" transform="translate(-0.012)"/><rect class="b" width="18" height="4" transform="translate(31 21)"/><path class="b" d="M9.012,20h9.336l2.645-4H9.012Z" transform="translate(21.988 27)"/><rect class="b" width="6" height="6" transform="translate(12 31)"/><rect class="b" width="6" height="6" transform="translate(12 20)"/><rect class="b" width="6" height="6" transform="translate(12 42)"/></g><g transform="translate(40.679 40.539)"><path class="c" d="M30.645,18.129l-3.329-3.336a2.331,2.331,0,0,0-3.307-.02l-2.677,2.695,6.649,6.678,2.679-2.7A2.351,2.351,0,0,0,30.645,18.129Z" transform="translate(-6.588 -15.096)"/><path class="c" d="M16.431,25.8a.809.809,0,0,0-.281.4l-1.983,6.782a.838.838,0,0,0,.8,1.077.786.786,0,0,0,.236-.036l6.757-1.992a.812.812,0,0,0,.383-.259l9.266-9.221L25.679,16.6Zm.9,5.846-.792-.8,1.124-3.84,2.874.593.568,2.93Z" transform="translate(-14.131 -9.872)"/></g></g></g></svg>