<svg xmlns="http://www.w3.org/2000/svg" width="73.667" height="73.667" viewBox="0 0 73.667 73.667"><defs><style>.a{fill:#eb1a2d;}</style></defs><path class="a" d="M299.51,256H290.3a2.3,2.3,0,0,0-2.3,2.3v18.417a2.3,2.3,0,0,0,2.3,2.3h9.208a4.6,4.6,0,0,0,4.6-4.6V260.6A4.6,4.6,0,0,0,299.51,256Zm0,18.417H292.6V260.6h6.906Z" transform="translate(-246.562 -219.166)"/><path class="a" d="M429.813,260.6V256H418.3a2.3,2.3,0,0,0-2.3,2.3v20.719h4.6v-9.208h9.208v-4.6H420.6v-4.6Z" transform="translate(-356.145 -219.166)"/><path class="a" d="M4.6,66.761V6.906a2.3,2.3,0,0,1,2.3-2.3H41.438v9.208a4.6,4.6,0,0,0,4.6,4.6H55.25v6.906h4.6V16.114a2.3,2.3,0,0,0-.668-1.634L45.374.667A2.3,2.3,0,0,0,43.74,0H6.906A6.906,6.906,0,0,0,0,6.906V66.761a6.906,6.906,0,0,0,6.906,6.906H23.021v-4.6H6.906A2.3,2.3,0,0,1,4.6,66.761Z" transform="translate(0 0)"/><path class="a" d="M171.51,256H162.3a2.3,2.3,0,0,0-2.3,2.3v20.719h4.6v-6.906h6.906a4.6,4.6,0,0,0,4.6-4.6V260.6A4.6,4.6,0,0,0,171.51,256Zm0,11.51H164.6V260.6h6.906Z" transform="translate(-136.979 -219.166)"/></svg>