<svg xmlns="http://www.w3.org/2000/svg" width="64.4" height="79.338" viewBox="0 0 64.4 79.338"><defs><style>.a{fill:#eb1a2d;}</style></defs><g transform="translate(-48.2 0)"><path class="a" d="M111.92,20.6,92,.681A2.324,2.324,0,0,0,90.359,0H56.749A8.558,8.558,0,0,0,48.2,8.549V70.79a8.558,8.558,0,0,0,8.548,8.549h47.3A8.558,8.558,0,0,0,112.6,70.79V22.242a2.324,2.324,0,0,0-.681-1.643ZM92.683,7.936l11.981,11.981H96.583a3.9,3.9,0,0,1-3.9-3.9ZM104.052,74.69h-47.3a3.9,3.9,0,0,1-3.9-3.9V8.549a3.9,3.9,0,0,1,3.9-3.9H88.034V16.018a8.558,8.558,0,0,0,8.548,8.548h11.369V70.79A3.9,3.9,0,0,1,104.052,74.69Z"/><path class="a" d="M154.626,417.732H114.791a2.324,2.324,0,0,0,0,4.649h39.834a2.324,2.324,0,0,0,0-4.649Z" transform="translate(-54.308 -353.001)"/><path class="a" d="M154.626,353.467H114.791a2.324,2.324,0,1,0,0,4.649h39.834a2.324,2.324,0,1,0,0-4.649Z" transform="translate(-54.308 -298.695)"/><path class="a" d="M154.626,289.2H114.791a2.324,2.324,0,0,0,0,4.649h39.834a2.324,2.324,0,1,0,0-4.649Z" transform="translate(-54.308 -244.385)"/><path class="a" d="M114.791,229.583h29.876a2.324,2.324,0,0,0,0-4.649H114.791a2.324,2.324,0,1,0,0,4.649Z" transform="translate(-54.308 -190.079)"/><path class="a" d="M114.791,83.854h14.938a2.324,2.324,0,0,0,2.324-2.324V66.591a2.324,2.324,0,0,0-2.324-2.324H114.791a2.324,2.324,0,0,0-2.324,2.324V81.529A2.324,2.324,0,0,0,114.791,83.854Zm2.324-14.938H127.4V79.2H117.116Z" transform="translate(-54.308 -54.308)"/></g></svg>