<svg xmlns="http://www.w3.org/2000/svg" width="150" height="150" viewBox="0 0 150 150"><defs><style>.a{fill:#fafafa;stroke:#eee;}.b{fill:#222;}.c{fill:#eb1a2d;}.d{stroke:none;}.e{fill:none;}</style></defs><g transform="translate(-399 -2905)"><g class="a" transform="translate(399 2905)"><circle class="d" cx="75" cy="75" r="75"/><circle class="e" cx="75" cy="75" r="74.5"/></g><g transform="translate(441.298 2952)"><g transform="translate(4.702)"><g transform="translate(0)"><path class="b" d="M59.4,0H7.123A1.376,1.376,0,0,0,5.747,1.376V9.631a1.376,1.376,0,0,0,1.376,1.376H59.4a1.376,1.376,0,0,0,1.376-1.376V1.376A1.376,1.376,0,0,0,59.4,0Z" transform="translate(-5.609)"/><path class="b" d="M322.525,114.939H310.143a1.376,1.376,0,0,0-1.376,1.376v8.255a1.376,1.376,0,0,0,1.376,1.376h12.382a1.376,1.376,0,0,0,1.376-1.376v-8.255A1.376,1.376,0,0,0,322.525,114.939Z" transform="translate(-268.731 -99.805)"/><path class="c" d="M322.525,229.878H310.143a1.376,1.376,0,0,0-1.376,1.376v8.255a1.376,1.376,0,0,0,1.376,1.376h12.382a1.376,1.376,0,0,0,1.376-1.376v-8.255A1.376,1.376,0,0,0,322.525,229.878Z" transform="translate(-268.731 -199.61)"/><path class="c" d="M322.525,344.816H310.143a1.376,1.376,0,0,0-1.376,1.376v8.255a1.376,1.376,0,0,0,1.376,1.376h12.382a1.376,1.376,0,0,0,1.376-1.376v-8.255A1.376,1.376,0,0,0,322.525,344.816Z" transform="translate(-268.731 -299.414)"/><path class="b" d="M39.454,114.939H7.123a1.376,1.376,0,0,0-1.376,1.376V139.7a1.376,1.376,0,0,0,1.376,1.376H39.454A1.376,1.376,0,0,0,40.83,139.7V116.315A1.376,1.376,0,0,0,39.454,114.939Z" transform="translate(-5.609 -99.805)"/><path class="c" d="M6.078,358.017H26.99a1.376,1.376,0,1,0,0-2.752H6.078a1.376,1.376,0,1,0,0,2.752Z" transform="translate(-4.702 -308.488)"/><path class="b" d="M38,407.51H6.078a1.376,1.376,0,1,0,0,2.752H38a1.376,1.376,0,1,0,0-2.752Z" transform="translate(-4.702 -353.854)"/></g></g></g></g></svg>