<svg xmlns="http://www.w3.org/2000/svg" width="150" height="150" viewBox="0 0 150 150"><defs><style>.a{fill:#fafafa;stroke:#eee;}.b{fill:#eb1a2d;}.c{stroke:none;}.d{fill:none;}</style></defs><g transform="translate(-399 -2905)"><g class="a" transform="translate(399 2905)"><circle class="c" cx="75" cy="75" r="75"/><circle class="d" cx="75" cy="75" r="74.5"/></g><g transform="translate(436.455 2950)"><g transform="translate(9.545)"><g transform="translate(0)"><path d="M46.915,3.95,46.637,0,9.545,2.608l3.5,49.777,3.348-.236V9.216H57.043V55.229l4.071.438L66.456,6.054Z" transform="translate(-9.545)"/></g></g><g transform="translate(19.86 12.682)"><path class="b" d="M98.884,109.838v46.433H132.6V109.838Zm11.108,7.9a5.9,5.9,0,0,1,4.9,2.184L112.565,122a2.949,2.949,0,0,0-2.386-1.279,2.735,2.735,0,0,0,0,5.459,2.949,2.949,0,0,0,2.386-1.279l2.324,2.074a5.9,5.9,0,0,1-4.9,2.184c-3.509,0-6.083-2.355-6.083-5.709S106.483,117.741,109.992,117.741Zm17.054,31.207H104.439v-3.466h22.607v3.466Zm0-6.165H104.439v-3.466h22.607v3.466Zm0-6.165H104.439v-3.466h22.607v3.466ZM123,128.909h-3.619l-4.617-10.918h3.962l2.6,6.379L124,117.99h3.618Z" transform="translate(-98.884 -109.838)"/></g></g></g></svg>