<svg xmlns="http://www.w3.org/2000/svg" width="74.904" height="82.235" viewBox="0 0 74.904 82.235"><defs><style>.a{fill:#eb1a2d;stroke:#eb1a2d;}</style></defs><g transform="translate(0.5 0.5)"><path class="a" d="M55.365,35.166V19.793a1.78,1.78,0,0,0-.491-1.168L37.638.525A1.718,1.718,0,0,0,36.4,0H9.075A9.1,9.1,0,0,0,0,9.16V60.834a9.047,9.047,0,0,0,9.075,9.092H30.645a23.284,23.284,0,1,0,24.719-34.76ZM38.1,5.943,49.659,18.116h-7.5a4.089,4.089,0,0,1-4.063-4.08Zm-29.02,60.6a5.672,5.672,0,0,1-5.688-5.706V9.16A5.719,5.719,0,0,1,9.075,3.386H34.709v10.65a7.464,7.464,0,0,0,7.45,7.466h9.82V34.725c-.508-.017-.914-.068-1.354-.068a23.625,23.625,0,0,0-15.441,5.825H13.68a1.693,1.693,0,1,0,0,3.386H32.034a26.938,26.938,0,0,0-2.98,5.249H13.68a1.693,1.693,0,1,0,0,3.386H27.953a23.237,23.237,0,0,0,1.016,14.053H9.075ZM50.607,77.866A19.894,19.894,0,1,1,70.5,57.972,19.915,19.915,0,0,1,50.607,77.866Zm0,0"/><path class="a" d="M77.244,205.07H94.4a1.693,1.693,0,0,0,0-3.386H77.244a1.693,1.693,0,0,0,0,3.386Zm0,0" transform="translate(-63.564 -169.684)"/><path class="a" d="M258.407,283.753a1.681,1.681,0,0,0-2.472,0l-9.922,10.65a1.687,1.687,0,0,0,.085,2.387,1.729,1.729,0,0,0,2.421-.084l7.01-7.5v18.489a1.693,1.693,0,1,0,3.386,0V289.2l6.958,7.5a1.689,1.689,0,0,0,2.472-2.3Zm0,0" transform="translate(-206.598 -238.276)"/></g></svg>