<svg xmlns="http://www.w3.org/2000/svg" xmlns:xlink="http://www.w3.org/1999/xlink" width="691.346" height="551.728" viewBox="0 0 691.346 551.728"><defs><style>.a{fill:#ebebeb;}.b{fill:#f5f5f5;opacity:0.064;}.c{fill:#407bff;}.d,.i{fill:#fff;}.aj,.d,.f,.h,.j,.k,.l,.m,.n,.o,.p,.q,.s,.t{isolation:isolate;}.e{fill:#eb1a2d;}.f{fill:#cb1021;}.g{fill:#263238;}.j{fill:#a71422;}.k{fill:#e59a9e;}.ak,.k,.l,.m,.p,.s,.t{opacity:0.3;}.l{fill:#f29292;}.m{fill:#f01620;}.n{fill:#f79297;}.o{fill:#b48888;opacity:0.1;}.p{fill:#f29da5;}.q{fill:#f0f0f0;opacity:0.532;}.r{fill:#fbdede;}.s{fill:#f9bec1;}.t{fill:#fca0a0;}.u{fill:#3c3c3b;}.v{fill:#575756;}.w{fill:#878787;}.x{fill:#634e42;}.y{fill:#ededed;}.z{fill:#ffcf9f;}.aa{fill:#f5c08c;}.ab,.aj{fill:#dadada;}.ac{fill:#deab7d;}.ad{fill:#f6f6f6;}.ae{fill:#f2bc88;}.af{fill:#ffc994;}.ag{fill:#f2bb88;}.ah{fill:#dba97b;}.ai{opacity:0.2;}.aj{mix-blend-mode:screen;}.al{fill:#936037;}.am{fill:#c4986e;}.an{filter:url(#a);}</style><filter id="a" x="245.231" y="118.831" width="132.418" height="169.931" filterUnits="userSpaceOnUse"><feOffset input="SourceAlpha"/><feGaussianBlur stdDeviation="3" result="b"/><feFlood flood-opacity="0.161"/><feComposite operator="in" in2="b"/><feComposite in="SourceGraphic"/></filter></defs><g transform="translate(-100.037 -167.526)"><g transform="translate(0 54.953)"><rect class="a" width="15.499" height="0.446" transform="translate(575.013 617.317)"/></g><g transform="translate(100.037 678.878)"><ellipse class="b" cx="345.673" cy="20.188" rx="345.673" ry="20.188"/></g><g transform="translate(315.851 167.526)"><g transform="translate(159.259)"><path class="c" d="M281.65,119.778a16.4,16.4,0,1,0,16.4,16.4A16.4,16.4,0,0,0,281.65,119.778Zm0,14.812a4.761,4.761,0,1,1,4.76-4.762A4.761,4.761,0,0,1,281.65,134.59Z" transform="translate(-265.251 -119.778)"/><path class="d" d="M281.65,119.778a16.4,16.4,0,1,0,16.4,16.4A16.4,16.4,0,0,0,281.65,119.778Zm0,14.812a4.761,4.761,0,1,1,4.76-4.762A4.761,4.761,0,0,1,281.65,134.59Z" transform="translate(-265.251 -119.778)"/></g><rect class="e" width="351.315" height="510.432" rx="7.485" transform="translate(0 21.539)"/><rect class="d" width="314.117" height="456.469" transform="translate(18.599 51.215)"/><g transform="translate(88.671 17.182)"><rect class="c" width="173.974" height="28.31" rx="1.931"/><rect class="f" width="173.974" height="28.31" rx="1.931"/></g><g transform="translate(105.957 31.021)"><path class="g" d="M369.37,177.952H319.014a5.635,5.635,0,0,1-5.031-2.924,10.1,10.1,0,0,0-17.837,0,5.635,5.635,0,0,1-5.033,2.927H240.738a5.391,5.391,0,0,1-5.384-5.384V142.562a5.391,5.391,0,0,1,5.384-5.384H369.37a5.391,5.391,0,0,1,5.384,5.384v30.005A5.391,5.391,0,0,1,369.37,177.952ZM305.063,166.1a13.637,13.637,0,0,1,12.07,7.261,2.107,2.107,0,0,0,1.881,1.029H369.37a1.822,1.822,0,0,0,1.819-1.819V142.562a1.82,1.82,0,0,0-1.819-1.818H240.738a1.82,1.82,0,0,0-1.818,1.818v30.005a1.822,1.822,0,0,0,1.818,1.819h50.374a2.113,2.113,0,0,0,1.881-1.029A13.621,13.621,0,0,1,305.063,166.1Z" transform="translate(-235.354 -137.178)"/><g class="h"><path class="i" d="M369.37,177.952H319.014a5.635,5.635,0,0,1-5.031-2.924,10.1,10.1,0,0,0-17.837,0,5.635,5.635,0,0,1-5.033,2.927H240.738a5.391,5.391,0,0,1-5.384-5.384V142.562a5.391,5.391,0,0,1,5.384-5.384H369.37a5.391,5.391,0,0,1,5.384,5.384v30.005A5.391,5.391,0,0,1,369.37,177.952ZM305.063,166.1a13.637,13.637,0,0,1,12.07,7.261,2.107,2.107,0,0,0,1.881,1.029H369.37a1.822,1.822,0,0,0,1.819-1.819V142.562a1.82,1.82,0,0,0-1.819-1.818H240.738a1.82,1.82,0,0,0-1.818,1.818v30.005a1.822,1.822,0,0,0,1.818,1.819h50.374a2.113,2.113,0,0,0,1.881-1.029A13.621,13.621,0,0,1,305.063,166.1Z" transform="translate(-235.354 -137.178)"/></g></g><g transform="translate(116.906 25.842)"><rect class="c" width="117.432" height="12.155" rx="1.159" transform="translate(0.07)"/><rect class="j" width="117.432" height="12.155" rx="1.159"/></g><g transform="translate(38.418 85.922)"><g transform="translate(134.676 214.588)"><rect class="k" width="31.728" height="31.728"/><path class="k" d="M301.041,316.545H276.709a3.7,3.7,0,0,1-3.7-3.7h0a3.7,3.7,0,0,1,3.7-3.7h24.332a3.7,3.7,0,0,1,3.7,3.7h0A3.7,3.7,0,0,1,301.041,316.545Z" transform="translate(-273.011 -272.041)"/><rect class="k" width="88.397" height="6.788" rx="1.904" transform="translate(45.139)"/><rect class="k" width="70.569" height="6.788" rx="1.904" transform="translate(45.139 17.828)"/><rect class="k" width="88.397" height="6.788" rx="1.904" transform="translate(45.139 35.657)"/><rect class="k" width="42.044" height="6.788" rx="1.904" transform="translate(45.139 53.485)"/></g><path class="l" d="M412.516,180.263H224.04a6.146,6.146,0,0,1-6.145-6.145h0a6.146,6.146,0,0,1,6.145-6.145H412.516a6.146,6.146,0,0,1,6.147,6.145h0A6.146,6.146,0,0,1,412.516,180.263Z" transform="translate(-181.483 -167.972)"/><path class="l" d="M400.8,198.266h-124.4a3.394,3.394,0,0,1-3.395-3.395h0a3.393,3.393,0,0,1,3.395-3.393H400.8a3.393,3.393,0,0,1,3.393,3.393h0A3.393,3.393,0,0,1,400.8,198.266Z" transform="translate(-138.335 -149.57)"/><path class="l" d="M382.975,208.266H276.406a3.394,3.394,0,0,1-3.395-3.395h0a3.393,3.393,0,0,1,3.395-3.393H382.975a3.393,3.393,0,0,1,3.393,3.393h0A3.393,3.393,0,0,1,382.975,208.266Z" transform="translate(-138.335 -141.741)"/><path class="l" d="M400.8,218.266h-124.4a3.394,3.394,0,0,1-3.395-3.394h0a3.393,3.393,0,0,1,3.395-3.393H400.8a3.393,3.393,0,0,1,3.393,3.393h0A3.393,3.393,0,0,1,400.8,218.266Z" transform="translate(-138.335 -133.913)"/><path class="l" d="M365.146,228.266H276.406a3.394,3.394,0,0,1-3.395-3.395h0a3.393,3.393,0,0,1,3.395-3.393h88.741a3.393,3.393,0,0,1,3.393,3.393h0A3.393,3.393,0,0,1,365.146,228.266Z" transform="translate(-138.335 -126.085)"/><g transform="translate(137.24 123.433)"><path class="m" d="M280.786,237.206l1.958,3.968,4.379.636-3.169,3.089.748,4.361-3.916-2.059-3.917,2.059.748-4.361-3.169-3.089,4.379-.636Z" transform="translate(-274.449 -237.206)"/><path class="m" d="M293.2,237.206l1.958,3.968,4.379.636-3.169,3.089.748,4.361L293.2,247.2l-3.917,2.059.748-4.361-3.168-3.089,4.379-.636Z" transform="translate(-264.731 -237.206)"/><path class="m" d="M305.614,237.206l1.958,3.968,4.379.636-3.168,3.089.748,4.361-3.917-2.059L301.7,249.26l.748-4.361-3.168-3.089,4.379-.636Z" transform="translate(-255.013 -237.206)"/><path class="m" d="M318.028,237.206l1.958,3.968,4.379.636L321.2,244.9l.748,4.361-3.917-2.059-3.916,2.059.748-4.361-3.168-3.089,4.379-.636Z" transform="translate(-245.294 -237.206)"/><path class="m" d="M330.443,237.206l1.958,3.968,4.379.636-3.168,3.089.748,4.361-3.916-2.059-3.917,2.059.748-4.361-3.168-3.089,4.379-.636Z" transform="translate(-235.576 -237.206)"/></g><g transform="translate(137.24 146.149)"><path class="n" d="M280.786,249.947l1.958,3.968,4.379.636-3.169,3.089L284.7,262l-3.916-2.059L276.87,262l.748-4.361-3.169-3.089,4.379-.636Z" transform="translate(-274.449 -249.947)"/><path class="n" d="M293.2,249.947l1.958,3.968,4.379.636-3.169,3.089.748,4.361-3.917-2.059L289.284,262l.748-4.361-3.168-3.089,4.379-.636Z" transform="translate(-264.731 -249.947)"/><path class="n" d="M305.614,249.947l1.958,3.968,4.379.636-3.168,3.089.748,4.361-3.917-2.059L301.7,262l.748-4.361-3.168-3.089,4.379-.636Z" transform="translate(-255.013 -249.947)"/><path class="o" d="M318.028,249.947l1.958,3.968,4.379.636L321.2,257.64l.748,4.361-3.917-2.059L314.112,262l.748-4.361-3.168-3.089,4.379-.636Z" transform="translate(-245.294 -249.947)"/><path class="o" d="M330.443,249.947l1.958,3.968,4.379.636-3.168,3.089.748,4.361-3.916-2.059L326.526,262l.748-4.361-3.168-3.089,4.379-.636Z" transform="translate(-235.576 -249.947)"/></g><g transform="translate(137.24 168.864)"><path class="n" d="M280.786,262.688l1.958,3.968,4.379.636-3.169,3.089.748,4.361-3.916-2.059-3.917,2.059.748-4.361-3.169-3.089,4.379-.636Z" transform="translate(-274.449 -262.688)"/><path class="n" d="M293.2,262.688l1.958,3.968,4.379.636-3.169,3.089.748,4.361-3.917-2.059-3.917,2.059.748-4.361-3.168-3.089,4.379-.636Z" transform="translate(-264.731 -262.688)"/><path class="n" d="M305.614,262.688l1.958,3.968,4.379.636-3.168,3.089.748,4.361-3.917-2.059-3.917,2.059.748-4.361-3.168-3.089,4.379-.636Z" transform="translate(-255.013 -262.688)"/><path class="n" d="M318.028,262.688l1.958,3.968,4.379.636-3.168,3.089.748,4.361-3.917-2.059-3.916,2.059.748-4.361-3.168-3.089,4.379-.636Z" transform="translate(-245.294 -262.688)"/><path class="o" d="M330.443,262.688l1.958,3.968,4.379.636-3.168,3.089.748,4.361-3.916-2.059-3.917,2.059.748-4.361-3.168-3.089,4.379-.636Z" transform="translate(-235.576 -262.688)"/></g><g transform="translate(134.676 303.73)"><rect class="p" width="31.728" height="31.728"/><path class="p" d="M301.041,366.545H276.709a3.7,3.7,0,0,1-3.7-3.7h0a3.7,3.7,0,0,1,3.7-3.7h24.332a3.7,3.7,0,0,1,3.7,3.7h0A3.7,3.7,0,0,1,301.041,366.545Z" transform="translate(-273.011 -322.041)"/><rect class="p" width="88.397" height="6.788" rx="1.904" transform="translate(45.139)"/><rect class="p" width="70.569" height="6.788" rx="1.904" transform="translate(45.139 17.828)"/><rect class="p" width="88.397" height="6.788" rx="1.904" transform="translate(45.139 35.657)"/><rect class="p" width="42.044" height="6.788" rx="1.904" transform="translate(45.139 53.485)"/></g><g transform="translate(0 41.909)"><g class="an" transform="matrix(1, 0, 0, 1, -254.23, -127.83)"><rect class="i" width="114.419" height="151.931" transform="translate(254.23 127.83)"/></g><g transform="translate(5.347 5.347)"><rect class="q" width="103.725" height="141.237"/><g transform="translate(-175.245 -116.178)"><circle class="r" cx="22.241" cy="22.241" r="22.241" transform="translate(201.655 136)"/><path class="r" d="M264.1,255.31a64.461,64.461,0,0,1-80.411,0l2.068-8.969a39.138,39.138,0,0,1,76.274,0Z" transform="translate(0 -31.627)"/></g></g></g><rect class="s" width="114.419" height="151.718" transform="translate(0 211.552)"/><g transform="translate(13.755 228.271)"><path class="t" d="M286.624,302.8H208.581a3.393,3.393,0,0,1-3.394-3.395h0a3.393,3.393,0,0,1,3.394-3.393h78.044a3.393,3.393,0,0,1,3.393,3.393h0A3.393,3.393,0,0,1,286.624,302.8Z" transform="translate(-205.186 -296.01)"/><rect class="t" width="84.832" height="6.788" rx="1.904" transform="translate(0 18.977)"/><path class="t" d="M250.968,324.087H208.581a3.393,3.393,0,0,1-3.394-3.394h0a3.4,3.4,0,0,1,3.394-3.394h42.387a3.394,3.394,0,0,1,3.393,3.394h0A3.393,3.393,0,0,1,250.968,324.087Z" transform="translate(-205.186 -279.345)"/><path class="t" d="M286.624,334.73H208.581a3.393,3.393,0,0,1-3.394-3.395h0a3.393,3.393,0,0,1,3.394-3.393h78.044a3.393,3.393,0,0,1,3.393,3.393h0A3.393,3.393,0,0,1,286.624,334.73Z" transform="translate(-205.186 -271.012)"/><path class="t" d="M286.624,345.376H208.581a3.4,3.4,0,0,1-3.394-3.395h0a3.4,3.4,0,0,1,3.394-3.395h78.044a3.394,3.394,0,0,1,3.393,3.395h0A3.394,3.394,0,0,1,286.624,345.376Z" transform="translate(-205.186 -262.679)"/><path class="t" d="M233.139,356.019H208.581a3.393,3.393,0,0,1-3.394-3.395h0a3.393,3.393,0,0,1,3.394-3.393h24.559a3.393,3.393,0,0,1,3.393,3.393h0A3.393,3.393,0,0,1,233.139,356.019Z" transform="translate(-205.186 -254.346)"/><path class="t" d="M268.8,366.663H208.581a3.393,3.393,0,0,1-3.394-3.393h0a3.393,3.393,0,0,1,3.394-3.395H268.8a3.393,3.393,0,0,1,3.393,3.395h0A3.393,3.393,0,0,1,268.8,366.663Z" transform="translate(-205.186 -246.013)"/></g></g></g><g transform="translate(-30.715 225.557)"><g transform="translate(202.796 259.527)"><path class="u" d="M219.278,179.428a104.265,104.265,0,0,0,15.4-.674,27.747,27.747,0,0,0,23.833-21.905,162.631,162.631,0,0,0,3.05-35.085c-14.488,4.135-28.638,6.8-42.279,7.26-13.642-.455-27.791-3.125-42.279-7.26a162.486,162.486,0,0,0,3.05,35.085,27.747,27.747,0,0,0,23.831,21.905A104.3,104.3,0,0,0,219.278,179.428Z" transform="translate(-176.983 -121.764)"/><g transform="translate(0.002)"><path class="v" d="M219.277,129.024c13.642-.455,27.791-3.125,42.279-7.26q.048,4.069-.068,8.093c-14.463,4.126-28.592,6.789-42.211,7.242-13.621-.453-27.75-3.116-42.211-7.242q-.116-4.025-.068-8.093C191.486,125.9,205.635,128.569,219.277,129.024Z" transform="translate(-176.984 -121.764)"/><rect class="w" width="11.326" height="8.39" transform="translate(36.629 6.945)"/><path class="u" d="M209.762,131.764h2.389v-9.107l-2.389.586Z" transform="translate(-135.163 -120.624)"/><path class="u" d="M182.711,131.764h-2.389v-9.107l2.389.586Z" transform="translate(-172.725 -120.624)"/><path class="u" d="M203.7,133.1h2.39v-9.108l-2.39.34Z" transform="translate(-142.898 -118.927)"/><path class="u" d="M188.773,133.1h-2.389v-9.108l2.389.34Z" transform="translate(-164.99 -118.927)"/></g></g><g transform="translate(200.36 280.018)"><g transform="translate(53.141 173.072)"><path class="u" d="M210.009,217.088c-3.789.2-7.822.439-10.747-1.108V213.5l11.339-1.409Z" transform="translate(-199.262 -200.083)"/><path class="u" d="M199.262,214.884c20.146,5.353,35.119,6,43.463,2.915l.266-3.154L199.587,211Z" transform="translate(-199.262 -201.47)"/><path class="x" d="M199.362,217.537c6.361,3.915,39.926,6.206,43.5,2.449.178-2.164-3.323-4.506-9.648-7.048-.626-.248-1.277-.5-1.962-.756-.473-.178-.97-.355-1.477-.544-.662-.237-1.338-.473-2.035-.71h-.011c-.473-.166-.97-.33-1.466-.5h-.014c-.685-.225-1.393-.448-2.128-.685-1.748-.558-3.594-1.113-5.544-1.68C201.656,203.149,199.646,214.05,199.362,217.537Z" transform="translate(-199.134 -206.813)"/><path class="u" d="M208.58,211.921a.89.89,0,0,0,1.229.223l4.882-3.357c-.685-.225-1.393-.448-2.128-.685l-3.76,2.576A.893.893,0,0,0,208.58,211.921Z" transform="translate(-187.578 -205.169)"/><path class="u" d="M210.21,212.606a.893.893,0,0,0,1.243.141c.863-.7,1.832-1.372,2.777-2.021.64-.448,1.313-.922,1.953-1.4-.662-.237-1.338-.473-2.035-.71h-.011c-.307.214-.615.437-.922.651-.97.662-1.964,1.359-2.874,2.092A.885.885,0,0,0,210.21,212.606Z" transform="translate(-185.544 -204.506)"/><path class="u" d="M211.79,213.143a.873.873,0,0,0,.71.355.9.9,0,0,0,.53-.178l4.552-3.393c-.626-.248-1.277-.5-1.962-.756l-3.653,2.731A.884.884,0,0,0,211.79,213.143Z" transform="translate(-183.505 -203.803)"/></g><g transform="translate(0 3.332)"><g transform="translate(2.737 170.516)"><path class="u" d="M187.784,217.382c-3.8-.011-7.836,0-10.669-1.714l.141-2.478,11.4-.767Z" transform="translate(-177.115 -200.431)"/><g transform="translate(0.141)"><path class="u" d="M177.177,214.923c19.812,6.484,34.723,7.977,43.228,5.371l.444-3.136-43.128-6.093Z" transform="translate(-177.177 -202.164)"/><path class="x" d="M177.345,217.239c6.127,4.267,39.507,8.46,43.285,4.907.3-2.151-3.059-4.684-9.231-7.581-.612-.282-1.247-.569-1.916-.867-.462-.2-.949-.407-1.445-.626-.649-.273-1.306-.548-1.991-.824h-.011c-.462-.193-.949-.387-1.436-.578l-.009,0c-.671-.264-1.368-.528-2.087-.806-1.716-.653-3.525-1.313-5.442-1.989C180.449,203,177.825,213.772,177.345,217.239Z" transform="translate(-176.963 -207.154)"/><path class="u" d="M186.63,212.37a.862.862,0,0,0,.71.419.873.873,0,0,0,.505-.123l5.066-3.077c-.671-.264-1.368-.528-2.087-.806l-3.9,2.36A.891.891,0,0,0,186.63,212.37Z" transform="translate(-165.284 -205.075)"/><path class="u" d="M188.223,213.147a.891.891,0,0,0,1.231.212c.9-.646,1.907-1.265,2.89-1.862.662-.412,1.361-.847,2.026-1.281-.649-.273-1.306-.548-1.991-.824h-.011c-.316.193-.637.4-.958.6-1,.605-2.035,1.247-2.986,1.925A.887.887,0,0,0,188.223,213.147Z" transform="translate(-163.295 -204.298)"/><path class="u" d="M189.771,213.78a.868.868,0,0,0,.685.394.917.917,0,0,0,.544-.148l4.736-3.129c-.612-.282-1.247-.569-1.916-.867l-3.8,2.519A.888.888,0,0,0,189.771,213.78Z" transform="translate(-161.299 -203.486)"/></g></g><path class="u" d="M175.913,307.714c-.034-1.154.926-8.189.963-9.356,1.607-52.8,3.557-105.461,7.631-158.136.826-10.3,16.239-10.8,17.7-.583.822,5.774.036,12.124.007,17.923-.116,23.426.1,46.847,1.024,70.257q1.5,37.583,3.038,75.159c.007.18,0,.36,0,.537C200.523,306.328,191.1,310.021,175.913,307.714Z" transform="translate(-175.913 -132.231)"/></g><path class="u" d="M198.112,306.978c-.1-1.152.46-8.227.43-9.395-1.386-52.81-2.424-105.495-1.34-158.316.243-10.326,15.6-11.7,17.636-1.582,1.149,5.717.724,12.1,1.024,17.893,1.211,23.392,2.749,46.765,5,70.086q3.619,37.436,7.29,74.866c.018.177.025.357.036.535C221.476,305.883,211.672,309.04,198.112,306.978Z" transform="translate(-149.325 -130.768)"/></g><path class="y" d="M235.529,174.9c1.532.2,3.041.371,4.57.5,11.589,1.006,23.2-.482,34.7-2.164.5-.089,1.029-.155,1.532-.241l1.857-.262a38.3,38.3,0,0,1,.876-3.958c2.556-9.117,8.221-17.317,10.6-26.544,5.355-20.813-5.685-36.426-4.461-57.894.437-7.631-5.269-13.71-4.024-28.075,2.012-23.7-5.027-29.364-18.257-36.36a55.822,55.822,0,0,0-27.306-6.1h-.171a55.836,55.836,0,0,0-27.309,6.1c-13.228,7-20.269,12.659-18.257,36.36,1.247,14.365-4.461,20.442-4.021,28.073,1.224,21.471-18.724,37.222-13.366,58.038,2.381,9.226,8.045,17.427,10.6,26.544a38.841,38.841,0,0,1,.874,3.956c.612.089,1.245.175,1.859.264.5.086,1.026.152,1.529.241,11.5,1.682,32.017,3.029,43.6,2.023C232.5,175.273,234,175.1,235.529,174.9Z" transform="translate(18.916 0.003)"/><g transform="translate(333.646 205.266)"><rect class="z" width="28.693" height="5.722" rx="1.245" transform="translate(46.086 16.411)"/><path class="z" d="M253.924,107.479l-.007-.057a2.833,2.833,0,0,1,2.538-3.1l22.911-2.3a2.833,2.833,0,0,1,3.1,2.538l.007.055a2.832,2.832,0,0,1-2.538,3.1l-22.911,2.3A2.833,2.833,0,0,1,253.924,107.479Z" transform="translate(-209.692 -92.714)"/><path class="z" d="M254.72,110.379l0-.057a2.835,2.835,0,0,1,2.931-2.731l20.852.742a2.83,2.83,0,0,1,2.729,2.931l0,.059a2.83,2.83,0,0,1-2.931,2.729l-20.849-.742A2.833,2.833,0,0,1,254.72,110.379Z" transform="translate(-208.651 -85.589)"/><path class="z" d="M254.745,112.29l.007-.048a2.517,2.517,0,0,1,2.8-2.194l15,1.832a2.515,2.515,0,0,1,2.192,2.8l-.007.052a2.515,2.515,0,0,1-2.8,2.192l-15-1.832A2.517,2.517,0,0,1,254.745,112.29Z" transform="translate(-208.64 -82.475)"/><path class="aa" d="M234.477,107.324l31.742-.157c1.013-2.806,1.994-4.807,4.736-5.51a8.05,8.05,0,0,1,1.937-.246h6l.753,2.6,8.812.344c.325,8.07-1.234,14.718-3.885,21.919l-11.5-1.045a8.209,8.209,0,0,1-6.484-3.3l-32.12,1.042Z" transform="translate(-234.477 -93.471)"/><path class="z" d="M258.157,102.56c3.3-.373,7.383-2.686,9.247-4.167,2.456-1.948,7.624,2.526.935,6.668-1.932,1.2-5.121,3.373-7.426,3.418,1.1,4.133-1.42,8.714-5.287,10.663l-6.1-12.948C250.521,104.353,254.379,102.988,258.157,102.56Z" transform="translate(-215.281 -97.922)"/><path class="z" d="M265.766,107.951a11.512,11.512,0,0,1,4.672-7.094l5.876,1.809,2.651,4.028c-.391,4.836-2.558,9.9-8.007,9.607l-.03,0H234.477v-8.266Z" transform="translate(-234.477 -94.178)"/></g><path class="i" d="M208.015,95.468l25.265,43.608L240.174,151l.637,1.092a12.744,12.744,0,0,0,12.29,6.3,12.584,12.584,0,0,0,5.189-1.661,12.768,12.768,0,0,0,4.666-17.477l-3.639-6.281L230.182,82.631a12.808,12.808,0,0,0-22.167,12.836Z" transform="translate(63.201 79.676)"/><path class="i" d="M280.373,128.054l-46.915-1.375a12.8,12.8,0,1,1,.746-25.592l49.856,1.459Z" transform="translate(82.01 111.374)"/><path class="y" d="M216.846,87.678a320.764,320.764,0,0,1,2.961,36.8L226.7,136.4c0-.02.023-.046.023-.066a8.094,8.094,0,0,0,.319-1.275,20.67,20.67,0,0,0-.25-7.285c-.023-.091-.023-.157-.046-.248C224.561,113.965,222.331,100.264,216.846,87.678Z" transform="translate(76.674 94.273)"/><path class="ab" d="M183.256,64.483c2.326-8.3,1.375-17.948,6.759-24.687,2.583-3.229,6.32-5.319,10.105-6.987,9.226-4.065,19.479-6.088,29.491-4.88s19.741,5.8,26.371,13.405,9.873,18.273,7.727,28.128c-.945,4.34.733,2.126-.457,6.393-.949,5.619-4.468,15.4-3.5,19.457,2.49,10.412,3.309,20.861-3.685,28.965,2.064-4.889,3.962-10.287,2.544-15.4a39.247,39.247,0,0,0-3.191-6.891,22.116,22.116,0,0,1-3.059,3.605c.929,3.07,1.894,6.256,1.179,9.359-.5,2.169-1.78,4.062-2.774,6.056s-1.725,4.311-1.031,6.427a12.979,12.979,0,0,1-1.684-7.558c.075-2.622.5-5.237.366-7.854-.039-.774-.127-1.543-.237-2.31a15.22,15.22,0,0,0-2.681,3.83c-2.638,5.687-.282,12.954-3.594,18.278-2.447,3.928-7.285,5.6-11.835,6.45a59.037,59.037,0,0,1-25.5-.876c.708-7.039,1.256-14.659-1.771-20.886-.118.2-.2.428-.332.628-1.388,2.137-3.3,3.878-4.85,5.9s-2.767,4.515-2.408,7.037c-2.041-3.4-.951-7.811.8-11.37,1.136-2.31,2.535-4.545,3.53-6.905-1.188-1.3-2.476-2.517-3.737-3.753-.828,2.028-1.759,4.033-2.608,6.045-1.971,4.672-3.491,9.916-1.982,14.757-3.23-6.464-3.519-12.153-2.3-19.275.478-2.786,1.429-4.941,2.112-7.686-3.293-4.861-5.7-14.4-5.7-20.281,0-2.656-2.963-6.12-3.778-8.648C180.3,69.005,182.136,68.475,183.256,64.483Z" transform="translate(31.108 17.597)"/><rect class="ac" width="26.927" height="41.179" transform="translate(240.756 127.163)"/><path class="i" d="M167.116,362.774c5.257,4.028,7.467,1.343,11.971,2.255a14.678,14.678,0,0,1,5.417,2.456,7.035,7.035,0,0,0,.91.546v.023a15.626,15.626,0,0,0,11.038,1.684,36.956,36.956,0,0,1,3.687-.726q2.117-.273,4.1-.344a49.1,49.1,0,0,1,10.606.913c3.277.569,6.489,1.341,9.72,1.957h.021c1.5.273,3.006.544,4.531.726,7.235.91,11.013-2.023,16.566-2.956a20.984,20.984,0,0,1,8.375.364,28.143,28.143,0,0,1,3.118.885,20.883,20.883,0,0,0,15.59-1.183,15.025,15.025,0,0,0,2.5-1.616,13.378,13.378,0,0,1,8.6-3.229c4.372-.046,8.262,1.5,12.973-1.752a1713.16,1713.16,0,0,1-11.721-185.463v-1.229c-.091-12.77-.046-25.811.159-39.191q.239-14.68.728-29.908a30.955,30.955,0,0,0-7.4-19.411c-.819-.91-1.661-1.8-2.549-2.617C272.4,81.564,254.9,73.69,254.9,73.69c-3.391,1.434-25.285-.979-28.629-2.342L201.118,77.7a30.819,30.819,0,0,0-12.879,6.939c-.913.819.569.708-.23,1.616-4.688,5.351-5.369,8.648-7.374,18.913.341,9.379-2.139,20.529-2.069,29.817.043,2.66.043,5.348.043,8.011q.034,15.461-.364,30.882-.444,19.667-1.457,39.419v.046C174.492,261.36,170.393,310.247,167.116,362.774Z" transform="translate(13.223 73.438)"/><path class="ad" d="M194.508,69.192c8.826,2.645,17.8,4.374,26.928,1.707l.448,5.549c-5.981,4.14-21.311,2.959-28.886-1.393Z" transform="translate(46.247 70.687)"/><rect class="ad" width="6.828" height="40.648" transform="translate(253.523 145.741)"/><path class="y" d="M213.453,273.288a6.73,6.73,0,0,0,.41,1.365,15.025,15.025,0,0,0,2.5-1.616,13.378,13.378,0,0,1,8.6-3.229c-2.185-41.469-9.809-82.731-8.239-124.221-2.185,24.511-4.37,49.162-2.412,73.694.774,9.9,2.23,19.78,1.912,29.678a97.566,97.566,0,0,1-2.162,17.024C213.567,268.394,212.975,270.877,213.453,273.288Z" transform="translate(72.12 168.159)"/><path class="y" d="M201.542,248.4a27.339,27.339,0,0,0,.228,4.506,20.985,20.985,0,0,1,8.375.364c5.553-29.723,4.893-60.382,5.576-90.694a259.925,259.925,0,0,1-10.4,68.3C203.635,236.636,201.746,242.416,201.542,248.4Z" transform="translate(57.13 189.838)"/><path class="y" d="M189.7,278.318c3.28.569,6.486,1.341,9.72,1.957a97.919,97.919,0,0,1-1.982-36.394c1.322-9.877,4.188-19.57,4.8-29.541.546-8.307-.5-16.637-1.525-24.9q-2.868-23.279-5.756-46.565-.174,16.284-.321,32.548c-.114,10.242-.2,20.526-1.32,30.725C190.678,230.317,182.53,255.377,189.7,278.318Z" transform="translate(38.361 164.701)"/><path class="y" d="M202.376,203.549c.847-6.118.478-12.333.1-18.5q-.836-13.847-1.673-27.7c4.472,16.794,8.976,34.318,5.544,51.356C203.619,222.28,196,234.542,193.712,248.2,190.789,233.174,200.278,218.7,202.376,203.549Z" transform="translate(46.45 183.171)"/><path class="y" d="M180.793,209.668c.842,7.9,2.708,16,2.526,23.806q2.117-.273,4.1-.344c1.161-5.05.455-10.333.068-17.8-.66-12.654-3.687-25.1-4.279-37.755A89.719,89.719,0,0,0,180.793,209.668Z" transform="translate(30.039 208.976)"/><path class="y" d="M172.666,254.295a14.677,14.677,0,0,1,5.417,2.456,6.886,6.886,0,0,0,.91.546c.457-6.894-.41-14.086-.364-21.029.137-26.353,13.633-52.23,8.717-78.129-1.183,18.888-7.192,37.074-11.288,55.532C173.1,226.959,171.164,240.89,172.666,254.295Z" transform="translate(19.64 184.173)"/><path class="y" d="M171.366,194.335c4.1-22.144,6.464-22.167,10.947-50.844a240.636,240.636,0,0,1,16.773-57.284c-4.779.387-8.375,4.37-11.22,8.216a120.73,120.73,0,0,0-11.653,19.325c.023,2.5-1.138,6.074-3.027,10.287q.034,15.461-.364,30.882Q172.379,174.583,171.366,194.335Z" transform="translate(18.646 92.396)"/><path class="i" d="M212.232,76.966a12.8,12.8,0,0,0-17.493,4.663L161.95,138.251a12.8,12.8,0,0,0,22.158,12.829L216.9,94.458A12.8,12.8,0,0,0,212.232,76.966Z" transform="translate(4.431 78.403)"/><g transform="translate(160.694 261.097)"><path class="ae" d="M169.644,130.965h.064a3.039,3.039,0,0,1,3.006,3.07l-.255,24.582a3.041,3.041,0,0,1-3.07,3.009l-.061,0a3.038,3.038,0,0,1-3.009-3.07l.257-24.58A3.036,3.036,0,0,1,169.644,130.965Z" transform="translate(-148.487 -111.594)"/><path class="ae" d="M167.029,132.129h.064a3.136,3.136,0,0,1,3.191,3.072l-.255,24.582a3.137,3.137,0,0,1-3.255,3.006l-.064,0a3.133,3.133,0,0,1-3.191-3.072l.253-24.58A3.137,3.137,0,0,1,167.029,132.129Z" transform="translate(-152.06 -110.109)"/><path class="ae" d="M164.176,131.094l.064,0a3.065,3.065,0,0,1,3.068,3.07l-.253,24.582a3.071,3.071,0,0,1-3.132,3.006l-.064,0a3.067,3.067,0,0,1-3.068-3.07l.253-24.582A3.071,3.071,0,0,1,164.176,131.094Z" transform="translate(-155.539 -111.429)"/><path class="ae" d="M168.33,127.861l.064-.02a3.2,3.2,0,0,1,4.028,2.422,100.04,100.04,0,0,0,7.9,19.982,3.412,3.412,0,0,1-1.315,4.5l-.057.032a3.176,3.176,0,0,1-4.461-1.334,106.4,106.4,0,0,1-8.412-20.9A3.852,3.852,0,0,1,168.33,127.861Z" transform="translate(-148.982 -115.772)"/><path class="ae" d="M161.5,132.115h.055a2.7,2.7,0,0,1,2.67,2.727l-.289,16.384a2.7,2.7,0,0,1-2.727,2.67h-.055a2.7,2.7,0,0,1-2.67-2.727l.287-16.382A2.7,2.7,0,0,1,161.5,132.115Z" transform="translate(-158.484 -110.127)"/><rect class="af" width="16.256" height="15.672" transform="matrix(0.01, -1, 1, 0.01, 4.407, 16.255)"/><path class="af" d="M161.231,149.567h.055a2.7,2.7,0,0,0,2.727-2.672l-.011.988a3.04,3.04,0,0,0,3.009,3.072h.061a3.041,3.041,0,0,0,3.07-3.009l-.009.917a3.039,3.039,0,0,0,3.006,3.07h.061a3.038,3.038,0,0,0,3.07-3.006,3.039,3.039,0,0,0,3.006,3.07h.064a3.037,3.037,0,0,0,3.068-3.006l.066-6.234.011-1.108.066-6.2a8.944,8.944,0,0,0-8.851-9.035l-5.986-.061a8.942,8.942,0,0,0-9.035,8.849l-.064,6.2-.011,1.108-.045,4.331A2.7,2.7,0,0,0,161.231,149.567Z" transform="translate(-158.388 -117.485)"/></g><path class="i" d="M182.515,161.406l6.6-46.469a12.8,12.8,0,0,0-25.349-3.6l-7.01,49.382Z" transform="translate(0 110.422)"/><g transform="translate(257.932 211.444)"><path class="y" d="M236.952,100.637c1.1,26.887-13.025,53.886-35.743,68.309A149.522,149.522,0,0,0,236.952,100.637Z" transform="translate(-201.209 -100.637)"/><path class="y" d="M209.615,164.036l18.6-54.355A77.774,77.774,0,0,1,209.615,164.036Z" transform="translate(-190.484 -89.098)"/></g><path class="af" d="M185.545,39.554c.107-.023.214-.03.321-.048a8.032,8.032,0,0,1,6.864,2.533l-1.352,20.508a6.594,6.594,0,0,1-.774.225c-4.711,1.026-9.661-3.341-11.059-9.752S180.834,40.58,185.545,39.554Z" transform="translate(28.612 32.699)"/><g transform="translate(287.91 73.687)"><path class="af" d="M215.612,42.04a8.028,8.028,0,0,1,7.135-1.657c.1.03.209.05.312.086,4.545,1.609,6.452,7.929,4.263,14.113s-7.649,9.9-12.194,8.287a6.055,6.055,0,0,1-.747-.323Z" transform="translate(-214.381 -40.108)"/><path class="ag" d="M228.22,46.289a14.754,14.754,0,0,0,.567-1.88,15.5,15.5,0,0,1-.9,4.85c-2.192,6.186-7.649,9.9-12.194,8.287a6.591,6.591,0,0,1-.746-.323l.164-2.708C220.127,55.891,225.926,52.3,228.22,46.289Z" transform="translate(-213.656 -34.621)"/><path class="ah" d="M216.8,54.768a6.387,6.387,0,0,0,.239-1.582,19.142,19.142,0,0,0-.134-1.939c-.071-.687-.2-1.454-.271-2.265a10.394,10.394,0,0,1,.025-2.64,6.248,6.248,0,0,1,.995-2.615,4.322,4.322,0,0,1,2.185-1.68,4.114,4.114,0,0,1,4.285,1.067,3.693,3.693,0,0,1,.94,2.745c-.075.685-.328.995-.421.965-.139-.032-.13-.38-.262-.926a3.616,3.616,0,0,0-1.129-1.9,2.925,2.925,0,0,0-2.874-.426,3.678,3.678,0,0,0-1.985,3.043,16.492,16.492,0,0,0,.073,3.753c.048-.018.08-.043.134-.059a2.519,2.519,0,0,1,2.9,3.5c-.332.63-.794.776-.96.628-.2-.157-.18-.517-.246-.924a2.147,2.147,0,0,0-1.632-1.971c-.048-.016-.093-.03-.139-.046.023.61-.007,1.224-.034,1.789a6.626,6.626,0,0,1-.528,1.909,4.2,4.2,0,0,1-1.882,2.133,1.787,1.787,0,0,1-.742.228c-.178.016-.273,0-.294-.061C214.931,57.236,216.276,56.735,216.8,54.768Z" transform="translate(-213.548 -37.898)"/></g><path class="ag" d="M179.266,43.21a12.68,12.68,0,0,0,.378,1.985,13.455,13.455,0,0,0,11.9,9.891l-.173,2.624a6.635,6.635,0,0,1-.776.225c-4.709,1.026-9.661-3.341-11.056-9.752A15.536,15.536,0,0,1,179.266,43.21Z" transform="translate(28.614 37.536)"/><path class="af" d="M183.609,46.945a22.473,22.473,0,0,0,.225,2.731l1.224,20.119-.232,4.95,1.008,15.847.091.546c.751,6.625,7.5,13.391,13.121,17.534l10.854,8.057a8.808,8.808,0,0,0,5.191,1.639h15.7a8.8,8.8,0,0,0,5.191-1.639l7.012-7.51c5.6-4.142,10.228-11.455,10.979-18.077l.068-.548,2.3-16.091.523-3.687,3-21.073a18.792,18.792,0,0,0-1.957-11.812,14.252,14.252,0,0,0-8.17-6.762,108.951,108.951,0,0,0-28.767-5.03c-.341-.02-.683-.02-1.024-.02s-.66,0-1,.02c-9.4.275-15.61,2.03-24.987,4.966C187.456,33.13,183.539,39.525,183.609,46.945Z" transform="translate(34.266 15.729)"/><path class="ah" d="M181.6,42.01a4.113,4.113,0,0,1,4.39-.521,4.332,4.332,0,0,1,1.955,1.939,6.316,6.316,0,0,1,.658,2.722,10.351,10.351,0,0,1-.307,2.62c-.168.8-.4,1.539-.551,2.214a19.366,19.366,0,0,0-.378,1.9,6.385,6.385,0,0,0,.041,1.6c.266,2.016,1.539,2.681,1.4,2.929-.027.055-.125.064-.3.025a1.811,1.811,0,0,1-.706-.319,4.192,4.192,0,0,1-1.6-2.351,6.736,6.736,0,0,1-.284-1.964c.046-.56.093-1.174.191-1.777-.048.009-.1.016-.143.03a2.142,2.142,0,0,0-1.864,1.75c-.118.4-.146.753-.362.885-.184.125-.624-.077-.872-.744a2.519,2.519,0,0,1,3.318-3.113c.05.023.08.052.125.075a16.742,16.742,0,0,0,.544-3.714,3.687,3.687,0,0,0-1.591-3.268,2.923,2.923,0,0,0-2.9.061,3.627,3.627,0,0,0-1.361,1.743c-.2.528-.234.874-.376.89-.1.016-.307-.323-.3-1.01A3.689,3.689,0,0,1,181.6,42.01Z" transform="translate(30.071 34.824)"/><path class="u" d="M185.382,36.731a31.892,31.892,0,0,1,5.653-6.987c6.177-5.8,14.625-9.456,23.615-10.945-.159-.039-.332-.077-.489-.114-.583-.1-1.147-.255-1.671-.316-.264-.043-.523-.086-.769-.125l-.715-.066a10.1,10.1,0,0,0-1.261-.061,5.5,5.5,0,0,0-.981.03l-.872.061s.232-.2.694-.544a4.6,4.6,0,0,1,.9-.555,7.13,7.13,0,0,1,1.295-.56c.253-.08.517-.166.792-.253.28-.071.569-.118.874-.178a13.056,13.056,0,0,1,1.955-.2,18.169,18.169,0,0,1,4.349.469c.51.125,1,.259,1.473.4.157-.344,4.575-3.375,4.352-2.843a11.809,11.809,0,0,0-.617,1.846c-.057.207-.121.46-.191.717a10.875,10.875,0,0,1,2.706-1.026,9.186,9.186,0,0,1,3.234-.209l.649.091c.2.055.389.1.567.155a4.046,4.046,0,0,1,.867.316c.457.218.687.355.687.355s-.269.055-.746.155a5.824,5.824,0,0,0-.822.214l-.494.141-.533.209a17.807,17.807,0,0,0-2.433,1.174c-.032.016-.061.036-.091.055a51.69,51.69,0,0,1,17.665,4.1A35.015,35.015,0,0,1,260.719,35.1a31.6,31.6,0,0,1,4.811,18.4l-1.006,22.026c-1.236-11.013-9.659-24.222-11.616-26.45a13.783,13.783,0,0,0-7.1-4.3c-.824-.2-1.652-.389-2.481-.574-10.481.742-19,8.148-29.539,9.044,2.019-1.067,4.087-2.317,6.2-3.58-9.406,2.963-18.813,5.369-28.219,2.139a13.76,13.76,0,0,0-1.259,3.484,13.185,13.185,0,0,0-.282,1.994l-1.142,17.345a8.032,8.032,0,0,0-6.864-2.533L181.01,53.5A31.918,31.918,0,0,1,185.382,36.731Z" transform="translate(30.95 0.114)"/><path class="ah" d="M201.228,61.992c1.839.15,4.165.512,6.689.528.48,0,.944-.027,1.406-.052a.47.47,0,0,1,.091-.032c8.46-1.875,3.428-13.935,3-22.866,2.727,5.872,9.9,18.769,3.013,25.8-1.413,1.443-4.379,2.1-7.513,2.121a14.9,14.9,0,0,1-7.51-2.121c-1.711-1.056-2.62-2.085-2.444-2.727C198.142,61.981,199.4,61.833,201.228,61.992Z" transform="translate(52.552 32.892)"/><path class="ah" d="M229,44.958c-9.723-3.548-16.757-7.529-23.537-6.215-1.78.765-1.227,7.863-.157,8.821C212.59,40.994,224.006,47.921,229,44.958Z" transform="translate(60.676 31.509)"/><path class="ah" d="M189.184,44.385c9.725-3.548,17.745-6.439,24.525-5.128-.2,1.3,1.07,6.593,0,7.551C206.422,40.238,194.175,47.348,189.184,44.385Z" transform="translate(41.38 32.083)"/><g class="ai" transform="translate(213.599 22.347)"><path class="aj" d="M207.132,31.409c-4.495,1.381-10.672,1.284-13.2-3.343,9.72,5.264,19.47-8.762,29.455-3.364-4.961.4-9.038,3.5-13.441,5.583,6.791-2.708,13.614-5.189,21.075-3.521-14.227,2.453-29.951,18.011-44.38,8.02C193.884,36.355,200.529,34.031,207.132,31.409Z" transform="translate(-175.459 -10.032)"/><path class="aj" d="M209.057,17.55c-16.562,5.651-26.594,19.425-26.9,36.922C179.3,36.326,190.911,20.393,209.057,17.55Z" transform="translate(-181.73 -17.55)"/><path class="aj" d="M183.313,50.4a30.036,30.036,0,0,1,6.316-25.893A112.949,112.949,0,0,0,183.313,50.4Z" transform="translate(-180.62 -8.672)"/><path class="aj" d="M224.953,44.6a43.17,43.17,0,0,0-14.026-24.716A24.031,24.031,0,0,1,224.953,44.6Z" transform="translate(-144.477 -14.568)"/></g><g class="ak" transform="translate(253.244 74.29)"><path class="i" d="M200.862,59.516a1.833,1.833,0,0,0,2.164-1.265c.032-.209.091-1.416.162-3.118.093-1.707.294-3.887.471-6.083.091-1.1.184-2.185.271-3.2.055-1.02.1-1.971.148-2.783.082-1.616.137-2.688.137-2.688l-.737,2.588c-.223.776-.482,1.682-.76,2.656-.31.97-.64,2.007-.972,3.05-.651,2.085-1.34,4.231-1.8,5.913-.442,1.691-.749,2.909-.781,3.125A1.74,1.74,0,0,0,200.862,59.516Z" transform="translate(-199.149 -40.373)"/></g><g transform="translate(273.064 72.462)"><path class="al" d="M207.858,43.626c0,2.242,2.085,4.058,4.652,4.058s4.652-1.816,4.652-4.058-2.082-4.056-4.652-4.056S207.858,41.386,207.858,43.626Z" transform="translate(-207.858 -39.57)"/><path class="u" d="M208.8,42.681a2.506,2.506,0,1,0,2.5-2.371A2.441,2.441,0,0,0,208.8,42.681Z" transform="translate(-206.652 -38.626)"/><path class="i" d="M210.5,42.5a.879.879,0,0,0,.879.879h0a.879.879,0,0,0,.878-.879h0a.879.879,0,0,0-.878-.878h0a.879.879,0,0,0-.879.878Z" transform="translate(-204.487 -36.951)"/><path class="i" d="M208.433,41.115a1.236,1.236,0,0,0,1.238,1.238h0a1.238,1.238,0,0,0,1.238-1.238h0a1.239,1.239,0,0,0-1.238-1.238h0a1.238,1.238,0,0,0-1.238,1.238Z" transform="translate(-207.124 -39.178)"/></g><path class="u" d="M204.566,44.789c.246.307.717.2,1.352-.162a19.574,19.574,0,0,1,2.626-1.356c2.253-.926,5.617-.853,9.32-.1,3.712.728,7.064,3.607,9.365,4.752,4.222,2.522,4.841-.981,1.869-3a37.07,37.07,0,0,0-10.526-5.842c-4.4-1.686-10.28-2.595-12.788-.633C204.543,39.457,204.323,44.485,204.566,44.789Z" transform="translate(60.894 30.042)"/><g transform="translate(239.693 71.852)"><path class="al" d="M193.195,43.358c0,2.239,2.082,4.056,4.652,4.056S202.5,45.6,202.5,43.358s-2.082-4.056-4.652-4.056S193.195,41.118,193.195,43.358Z" transform="translate(-193.195 -39.302)"/><path class="u" d="M194.141,42.413a2.5,2.5,0,1,0,2.5-2.371A2.438,2.438,0,0,0,194.141,42.413Z" transform="translate(-191.988 -38.358)"/><path class="i" d="M195.837,42.233a.877.877,0,0,0,.878.876h0a.877.877,0,0,0,.878-.876h0a.879.879,0,0,0-.878-.879h0a.879.879,0,0,0-.878.879Z" transform="translate(-189.824 -36.683)"/><path class="i" d="M193.644,40.875a1.287,1.287,0,0,0,1.288,1.288h0a1.287,1.287,0,0,0,1.288-1.288h0a1.287,1.287,0,0,0-1.288-1.288h0a1.287,1.287,0,0,0-1.288,1.288Z" transform="translate(-192.622 -38.938)"/></g><path class="u" d="M215.087,44.262c-.228.321-.706.237-1.359-.089a19.92,19.92,0,0,0-2.695-1.211c-2.3-.8-5.656-.548-9.313.405-3.667.929-6.857,3.983-9.094,5.253-4.078,2.747-4.884-.717-2.028-2.895a37.014,37.014,0,0,1,10.194-6.4C205.1,37.4,210.915,36.174,213.525,38,214.818,38.939,215.312,43.948,215.087,44.262Z" transform="translate(41.022 29.743)"/><path class="i" d="M171.863,144.788c1.639,6.441,4.422,12.663,7.11,18.74.8-.91,9.732-8.817,10.644-9.634-4.3-11.4-6.53-18.464-5.257-30.388.888-8.241,4.757-15.979,5.394-24.263.41-5.462,4.93-10.3,8.323-14.579,3.05-3.869,5.15-1.661,7.927-5.735,2.731-4.028.637-12.2,3.664-16,3.027-3.824,5.621-4.506,10.494-4.484,4.552.046,14.573,3.179,19.124,3.2,4.552-.02,7.752-3,12.3-3.05,4.87-.023,17.716.787,20.765,4.611,3,3.826.114,10.949,2.845,14.978,2.777,4.074,1.561,1.352,4.634,5.219,3.391,4.279,2.549,10.38,2.959,15.84.637,8.287,4.506,16.022,5.417,24.263,1.275,12.039-7.64,29.512-11.964,41.028.888.819,2.237,5.369,3.059,6.279,2.372-7.178,9.429-22.024,11.113-28.576,5.348-20.8-5.69-36.414-4.461-57.9.432-7.624-5.28-13.7-4.028-28.062,2-23.715-5.03-29.359-18.253-36.371a55.789,55.789,0,0,0-27.311-6.1h-.182a55.794,55.794,0,0,0-27.311,6.1c-13.223,7.012-20.255,12.656-18.253,36.369,1.252,14.363-4.461,20.438-4,28.064C187.819,105.82,166.494,123.984,171.863,144.788Z" transform="translate(18.172 0)"/><path class="y" d="M223.6,38.894c-.485,3.382-2.219,6.864-.974,10.046.9,2.3,3.2,3.849,4.053,6.168,1.345,3.637-1.245,7.954.387,11.473a18.516,18.516,0,0,0,2.533,3.361,4.577,4.577,0,0,1,1.17,3.894c-.444-1.807-2.019-3.1-3.605-4.074s-1.527-2.431-2.688-3.885c-2.661-3.325-.041-8.325-2.29-11.942-1.725-2.779-8.353-3.676-9.9-6.559a9.683,9.683,0,0,1-.371-7.046c.624-2.328,1.68-4.52,2.308-6.848A19.5,19.5,0,0,0,212.67,19.5a29.573,29.573,0,0,1,8.248,8.227A16.786,16.786,0,0,1,223.6,38.894Z" transform="translate(69.766 7.284)"/><path class="y" d="M213.379,46.566c1.8-3.8-.02-8.444,1.284-12.438.578-1.766,1.73-3.282,2.49-4.98a12.105,12.105,0,0,0-.237-10.223c-.009,3.355-2.4,6.19-4.8,8.53s-5.082,4.7-5.972,7.938c-.831,3.022.048,6.384-1.131,9.288-1.293,3.177-4.645,4.916-7.74,6.393a28.316,28.316,0,0,0,8.949.353C209.173,50.913,212.093,49.274,213.379,46.566Z" transform="translate(51.694 6.551)"/><path class="y" d="M197.89,35.665c-.321,2.558-.241,5.2-1.063,7.642-1.056,3.132-3.5,5.628-4.693,8.708-1.7,4.37-.762,9.529-2.936,13.685-1.9,3.632-5.763,5.722-9.409,7.6a18.163,18.163,0,0,0,6.147-13.833c-.052-2.906-.812-5.769-.819-8.676a33.684,33.684,0,0,1,1.163-7.638c.687-2.968,1.4-6,3.05-8.566,3.48-5.419,10.308-7.631,14.775-12.269A24.294,24.294,0,0,0,197.89,35.665Z" transform="translate(29.394 10.882)"/><path class="y" d="M201.061,30.845a13.546,13.546,0,0,0-2.827,7.8c.043,2.811,1.614,5.719,4.245,6.712,1.975-1.361,2.772-3.9,2.961-6.293s-.1-4.818.323-7.178c.366-2.067,1.263-4,1.709-6.054s.364-4.39-1-5.983a9.368,9.368,0,0,1-1.661,5.945C203.7,27.57,202.267,29.129,201.061,30.845Z" transform="translate(52.926 7.729)"/><path class="u" d="M273.548,39.3a3.413,3.413,0,0,0,.53-6.784,297.693,297.693,0,0,0-93.264,0,3.413,3.413,0,1,0,1.067,6.741,290.977,290.977,0,0,1,91.129,0A3.58,3.58,0,0,0,273.548,39.3Z" transform="translate(27.025 19.201)"/><path class="u" d="M273.548,36.537a3.413,3.413,0,0,0,.53-6.784,297.693,297.693,0,0,0-93.264,0,3.414,3.414,0,0,0,1.067,6.743,290.977,290.977,0,0,1,91.129,0A3.3,3.3,0,0,0,273.548,36.537Z" transform="translate(27.025 15.677)"/><g transform="translate(246.136 106.423)"><path class="u" d="M217.908,64.822c-1.329-2.167-.071-5.428.74-7.938-10.474.266-17.907,2.03-22.195-2.126C197.545,63.113,203,66.119,217.908,64.822Z" transform="translate(-195.481 -54.153)"/><path class="i" d="M196.206,54.758c5.191,1.935,14.561,2.34,22.75,2.135-.294,1.47-.717,2.733-.888,4.208-11.2,1.336-17.508-.25-20.756-2.831Z" transform="translate(-195.796 -54.153)"/><path class="am" d="M196.026,54.492l.569.25c.3.137.646.225.988.35,2.795.942,6.953,1.295,11.618,1.188,4.645.1,8.78-.246,11.575-1.177v1.541c-2.94,1.222-7.133,1.743-11.575,1.641-4.727.109-9.192-.478-12.14-1.875-.364-.182-.717-.328-1.029-.523l-.007,0Z" transform="translate(-196.026 -54.492)"/></g><path class="u" d="M213.579,52.357c-3.05,0-13.867.059-18.262,6.552-2.7,4-5.025,8.341-2.786,19.047,5.99,8.512,14.386,12.374,21.275,12.376s16.218-3.833,18.637-14.215c.972-6.664,1.092-9.3.71-12.033C231.638,53.215,218.361,52.357,213.579,52.357Zm.077,17.62c-2.026-.08-2.042,3.484-4.884,3.728-10.622.913-10.99-9.55-8.275-12.026a7.9,7.9,0,0,1,2.956-1.643,35.831,35.831,0,0,1,10.353-1.2,35.789,35.789,0,0,1,10.348,1.2,7.869,7.869,0,0,1,2.959,1.643c2.715,2.476,3.575,8.18.455,10.952-.011.009-.027.011-.039.023a6.241,6.241,0,0,1-5.756,1.447c-1.935-.624-1.707-4.037-3.735-3.96Z" transform="translate(44.503 49.207)"/></g></g></svg>