<svg xmlns="http://www.w3.org/2000/svg" width="18.791" height="18.791" viewBox="0 0 18.791 18.791"><defs><style>.a{fill:#fbbb00;}.b{fill:#518ef8;}.c{fill:#28b446;}.d{fill:#f14336;}</style></defs><path class="a" d="M4.164,144.549l-.654,2.442-2.391.051a9.412,9.412,0,0,1-.069-8.773h0l2.128.39.932,2.116a5.607,5.607,0,0,0,.053,3.775Z" transform="translate(0 -133.193)"/><path class="b" d="M270.653,208.176a9.392,9.392,0,0,1-3.349,9.082h0l-2.681-.137-.379-2.368a5.6,5.6,0,0,0,2.409-2.859h-5.024v-3.717h9.025Z" transform="translate(-252.026 -200.536)"/><path class="c" d="M44.666,314.775h0A9.4,9.4,0,0,1,30.509,311.9l3.045-2.492a5.588,5.588,0,0,0,8.052,2.861Z" transform="translate(-29.389 -298.053)"/><path class="d" d="M42.966,2.163,39.922,4.655A5.587,5.587,0,0,0,31.685,7.58L28.625,5.075h0A9.4,9.4,0,0,1,42.966,2.163Z" transform="translate(-27.573)"/></svg>