<svg xmlns="http://www.w3.org/2000/svg" width="582" height="309.024" viewBox="0 0 582 309.024"><defs><style>.a{fill:#eb1a2d;}.b{fill:#fff;}.c{fill:#f5f5f5;}.d{fill:#3f3d56;}.e{fill:#e5e5e5;}.f{fill:#efefef;}.g{fill:#e6e6e6;}.h{fill:#ffb8b8;}.i{fill:#2f2e41;}</style></defs><g transform="translate(0 0.031)"><path class="a" d="M810.816,630.232H704.668s-2.152-31.558,10.579-31.916,11.3,13.986,27.254-5.738,35.323-18.648,37.833-6.993-4.841,20.979,8.607,18.11S821.754,608.357,810.816,630.232Z" transform="translate(-331.394 -322.759)"/><path class="b" d="M826.624,614.348a37.4,37.4,0,0,0-37.634,22.267c-.6,1.377,1.43,2.578,2.035,1.19a35.076,35.076,0,0,1,35.6-21.1c1.51.136,1.5-2.222,0-2.357Z" transform="translate(-349.464 -330.682)"/><path class="b" d="M717.061,605.128a38.491,38.491,0,0,1,9.146,28.847c-.148,1.509,2.21,1.5,2.357,0a40.8,40.8,0,0,0-9.837-30.513c-1-1.146-2.66.527-1.667,1.667Z" transform="translate(-334.013 -328.3)"/><path class="b" d="M785.843,579.222a157.294,157.294,0,0,0-16.111,37.469q-1.586,5.606-2.744,11.319c-.3,1.481,1.97,2.114,2.273.627a154.824,154.824,0,0,1,13.12-38.159q2.561-5.134,5.5-10.066a1.179,1.179,0,0,0-2.035-1.19Z" transform="translate(-344.768 -323.072)"/><path class="c" d="M835.588,394.329v82.849H610.837a7.049,7.049,0,0,1-7.051-7.051v-82.85H828.537a7.05,7.05,0,0,1,7.051,7.053Z" transform="translate(-309.811 -282.069)"/><path class="d" d="M810.727,646.112H230.6a.936.936,0,0,1,0-1.871H810.727a.936.936,0,0,1,0,1.871Z" transform="translate(-229.662 -337.119)"/><rect class="d" width="1.572" height="113.151" transform="translate(420.091 195.108)"/><path class="e" d="M851.089,471.2H609.858a7.08,7.08,0,0,1-7.072-7.072V362.76a7.08,7.08,0,0,1,7.072-7.072H851.089a7.08,7.08,0,0,1,7.072,7.072V464.124A7.08,7.08,0,0,1,851.089,471.2ZM609.858,357.26a5.507,5.507,0,0,0-5.5,5.5V464.124a5.507,5.507,0,0,0,5.5,5.5H851.089a5.507,5.507,0,0,0,5.5-5.5V362.76a5.507,5.507,0,0,0-5.5-5.5Z" transform="translate(-309.597 -275.302)"/><path class="b" d="M794.368,422.4H652.143a2.357,2.357,0,1,1,0-4.715H794.368a2.357,2.357,0,0,1,0,4.715Z" transform="translate(-319.666 -288.584)"/><path class="b" d="M794.368,447.4H652.143a2.357,2.357,0,1,1,0-4.715H794.368a2.357,2.357,0,1,1,0,4.715Z" transform="translate(-319.666 -293.94)"/><path class="b" d="M794.368,472.4H652.143a2.357,2.357,0,1,1,0-4.715H794.368a2.357,2.357,0,0,1,0,4.715Z" transform="translate(-319.666 -299.296)"/><circle class="f" cx="25.826" cy="25.826" r="25.826" transform="translate(521.726 55.017)"/><path class="a" d="M922.931,354.707l-12.924-12.924a2.246,2.246,0,0,1,3.176-3.176l9.533,9.533,30.42-34.69a2.246,2.246,0,1,1,3.377,2.961Z" transform="translate(-375.272 -266.09)"/><path class="g" d="M374.731,329.587s15.915-10.051,30.992,1.675l10.051,104.7s-37.693,29.316-46.906,1.675Z" transform="translate(-259.484 -268.852)"/><path class="h" d="M138.222,370.031h-9.634l-3.208-37.022,12.843-.135Z" transform="translate(-26.86 -71.318)"/><path class="i" d="M117.517,376.658H136.1v11.7H105.819a11.7,11.7,0,0,1,11.7-11.7Z" transform="translate(-22.67 -80.698)"/><path class="h" d="M186.037,370.031h9.634l4.583-37.158H186.035Z" transform="translate(-39.854 -71.318)"/><path class="i" d="M0,0H30.276V11.7H11.7A11.7,11.7,0,0,1,0,0H0Z" transform="translate(174.393 307.658) rotate(179.997)"/><path class="i" d="M344.884,463.841l8.376,124.8,12.983-.419,17.171-100.094,15.915,98.838,15.077.838,4.188-128.993S354.936,444.576,344.884,463.841Z" transform="translate(-254.346 -296.31)"/><circle class="h" cx="19.299" cy="19.299" r="19.299" transform="translate(110.763 11.542)"/><path class="i" d="M371.561,325.883l-5.026,3.35s-20.94,0-22.616,12.564-6.282,98.42-1.256,98.42,5.863-6.7,5.863-6.7,3.35.838,10.051,7.539,10.889,6.7,13.4-3.35,19.265-87.112,3.35-101.351Z" transform="translate(-253.382 -268.917)"/><path class="i" d="M408.1,325.883l5.026,3.35s20.94,0,22.616,12.564,6.282,98.42,1.256,98.42-5.863-6.7-5.863-6.7-3.35.838-10.051,7.539-10.889,6.7-13.4-3.35-19.265-87.112-3.35-101.351Z" transform="translate(-265.629 -268.917)"/><path class="i" d="M372.934,295.987a10.505,10.505,0,0,1,7.972-17.73c2.669.089,5.183,1.181,7.73,1.983a25.565,25.565,0,0,0,12.01,1.082,16.037,16.037,0,0,0,10.228-6.039,11.752,11.752,0,0,0,1.446-11.525c-1.947-4.262-6.5-6.61-10.776-8.518a19.692,19.692,0,0,0-5.471-1.8,7.016,7.016,0,0,0-5.442,1.372c-1.2,1.034-1.907,2.589-3.216,3.485-1.473,1.009-3.387.983-5.163,1.16a19.8,19.8,0,0,0-9.592,35.784" transform="translate(-258.531 -253.378)"/><path class="h" d="M455.016,473.492a8.441,8.441,0,0,0-.688-12.925l-.227-22.148-11.59,2.2-.431,22.07a8.487,8.487,0,0,0,12.936,10.805Z" transform="translate(-274.874 -293.025)"/><path class="h" d="M352.016,468.492a8.441,8.441,0,0,0-.688-12.925l-.227-22.148-11.59,2.2-.431,22.07a8.487,8.487,0,0,0,12.936,10.805Z" transform="translate(-252.808 -291.954)"/><path class="i" d="M441.337,344.538l3.014,1.91s12.4,47.5,12.482,79.758c0,0-16.333,7.957-18.846,2.094S441.337,344.538,441.337,344.538Z" transform="translate(-274.158 -272.914)"/><path class="i" d="M345.51,344.538l-3.014,1.91s-10.794,47.5-7.875,79.339c0,0,17.171,7.957,19.684,2.094S345.51,344.538,345.51,344.538Z" transform="translate(-252.04 -272.914)"/></g></svg>