<svg xmlns="http://www.w3.org/2000/svg" width="28.867" height="28.867" viewBox="0 0 28.867 28.867"><defs><style>.a{fill:#ffc107;}.b{fill:#607d8b;}</style></defs><path class="a" d="M21.839,13.419a8.4,8.4,0,0,1-3.211,6.615,4.038,4.038,0,0,0-1.54,2.418.108.108,0,0,0-.06-.012H9.811a.2.2,0,0,0-.084.012,3.66,3.66,0,0,0-1.371-2.309,8.42,8.42,0,1,1,13.483-6.724Z" transform="translate(1.014 1.014)"/><path class="b" d="M16.291,19.512a3.557,3.557,0,0,0-.06.625v2.67a2.115,2.115,0,0,1-2.1,2.1H11.119a2.193,2.193,0,0,1-2.1-2.454V20.33a3.7,3.7,0,0,0-.084-.818.2.2,0,0,1,.084-.012h7.217a.108.108,0,0,1,.06.012Z" transform="translate(1.811 3.955)"/><path d="M15.315,21.3H9.9a.9.9,0,0,1,0-1.8h5.413a.9.9,0,0,1,0,1.8Z" transform="translate(1.825 3.955)"/><path d="M12.152,4.158a.9.9,0,0,1-.9-.9V.9a.9.9,0,1,1,1.8,0V3.256A.9.9,0,0,1,12.152,4.158Z" transform="translate(2.281)"/><path d="M18.723,6.764a.9.9,0,0,1-.637-1.541L19.75,3.559a.9.9,0,1,1,1.276,1.276L19.362,6.5A.9.9,0,0,1,18.723,6.764Z" transform="translate(3.614 0.668)"/><path d="M23.8,13.054H21.445a.9.9,0,1,1,0-1.8H23.8a.9.9,0,1,1,0,1.8Z" transform="translate(4.166 2.281)"/><path d="M20.388,21.29a.9.9,0,0,1-.637-.265l-1.665-1.665a.9.9,0,0,1,1.276-1.276l1.665,1.665a.9.9,0,0,1-.639,1.541Z" transform="translate(3.614 3.614)"/><path d="M4.2,21.29a.9.9,0,0,1-.637-1.541l1.665-1.665A.9.9,0,1,1,6.5,19.361L4.836,21.025A.9.9,0,0,1,4.2,21.29Z" transform="translate(0.668 3.614)"/><path d="M3.256,13.054H.9a.9.9,0,1,1,0-1.8H3.256a.9.9,0,1,1,0,1.8Z" transform="translate(0 2.281)"/><path d="M5.862,6.764A.9.9,0,0,1,5.224,6.5L3.56,4.835A.9.9,0,0,1,4.836,3.559L6.5,5.223a.9.9,0,0,1-.639,1.541Z" transform="translate(0.668 0.668)"/><path d="M16.612,13.514a.9.9,0,0,1-.9-.9A3.31,3.31,0,0,0,12.4,9.3a.9.9,0,0,1,0-1.8,5.118,5.118,0,0,1,5.112,5.112A.9.9,0,0,1,16.612,13.514Z" transform="translate(2.332 1.521)"/><path d="M14.923,27.853H11.916a2.193,2.193,0,0,1-2.1-2.459V23.273a3.9,3.9,0,0,0-1.454-3.133,8.419,8.419,0,1,1,10.265-.107,3.919,3.919,0,0,0-1.594,3.042v2.674a2.107,2.107,0,0,1-2.1,2.1ZM13.4,6.806a6.987,6.987,0,0,0-1.422.148A6.611,6.611,0,0,0,9.44,18.7a5.711,5.711,0,0,1,2.173,4.575v2.122c0,.109.014.654.3.654h3.007a.3.3,0,0,0,.3-.3V23.074a5.71,5.71,0,0,1,2.283-4.461A6.608,6.608,0,0,0,13.4,6.806Z" transform="translate(1.014 1.014)"/></svg>