<svg xmlns="http://www.w3.org/2000/svg" xmlns:xlink="http://www.w3.org/1999/xlink" width="623.307" height="497.429" viewBox="0 0 623.307 497.429"><defs><style>.a{fill:#ebebeb;}.b{fill:#f5f5f5;opacity:0.064;}.c{fill:#407bff;}.d,.i{fill:#fff;}.aj,.d,.f,.h,.j,.k,.l,.m,.n,.o,.p,.q,.s,.t{isolation:isolate;}.e{fill:#eb1a2d;}.f{fill:#cb1021;}.g{fill:#263238;}.j{fill:#a71422;}.k{fill:#e59a9e;}.ak,.k,.l,.m,.p,.s,.t{opacity:0.3;}.l{fill:#f29292;}.m{fill:#f01620;}.n{fill:#f79297;}.o{fill:#b48888;opacity:0.1;}.p{fill:#f29da5;}.q{fill:#f0f0f0;opacity:0.532;}.r{fill:#fbdede;}.s{fill:#f9bec1;}.t{fill:#fca0a0;}.u{fill:#3c3c3b;}.v{fill:#575756;}.w{fill:#878787;}.x{fill:#634e42;}.y{fill:#ededed;}.z{fill:#ffcf9f;}.aa{fill:#f5c08c;}.ab,.aj{fill:#dadada;}.ac{fill:#deab7d;}.ad{fill:#f6f6f6;}.ae{fill:#f2bc88;}.af{fill:#ffc994;}.ag{fill:#f2bb88;}.ah{fill:#dba97b;}.ai{opacity:0.2;}.aj{mix-blend-mode:screen;}.al{fill:#936037;}.am{fill:#c4986e;}.an{filter:url(#a);}</style><filter id="a" x="220.211" y="106.25" width="121.158" height="154.978" filterUnits="userSpaceOnUse"><feOffset input="SourceAlpha"/><feGaussianBlur stdDeviation="3" result="b"/><feFlood flood-opacity="0.161"/><feComposite operator="in" in2="b"/><feComposite in="SourceGraphic"/></filter></defs><g transform="translate(-100.037 -167.526)"><g transform="translate(528.268 622.595)"><rect class="a" width="13.973" height="0.402"/></g><g transform="translate(100.037 628.553)"><ellipse class="b" cx="311.653" cy="18.201" rx="311.653" ry="18.201"/></g><g transform="translate(294.611 167.526)"><g transform="translate(143.585)"><path class="c" d="M280.036,119.778a14.785,14.785,0,1,0,14.785,14.785A14.784,14.784,0,0,0,280.036,119.778Zm0,13.354a4.292,4.292,0,1,1,4.292-4.293A4.292,4.292,0,0,1,280.036,133.132Z" transform="translate(-265.251 -119.778)"/><path class="d" d="M280.036,119.778a14.785,14.785,0,1,0,14.785,14.785A14.784,14.784,0,0,0,280.036,119.778Zm0,13.354a4.292,4.292,0,1,1,4.292-4.293A4.292,4.292,0,0,1,280.036,133.132Z" transform="translate(-265.251 -119.778)"/></g><rect class="e" width="316.74" height="460.198" rx="7.485" transform="translate(0 19.419)"/><rect class="d" width="283.202" height="411.545" transform="translate(16.769 46.175)"/><g transform="translate(79.944 15.491)"><rect class="c" width="156.852" height="25.524" rx="1.931"/><rect class="f" width="156.852" height="25.524" rx="1.931"/></g><g transform="translate(95.529 27.968)"><path class="g" d="M356.181,173.939h-45.4a5.08,5.08,0,0,1-4.536-2.636,9.1,9.1,0,0,0-16.082,0,5.081,5.081,0,0,1-4.538,2.639H240.208a4.86,4.86,0,0,1-4.854-4.854V142.032a4.86,4.86,0,0,1,4.854-4.854H356.181a4.86,4.86,0,0,1,4.854,4.854v27.052A4.86,4.86,0,0,1,356.181,173.939ZM298.2,163.25a12.3,12.3,0,0,1,10.882,6.547,1.9,1.9,0,0,0,1.7.928h45.4a1.642,1.642,0,0,0,1.64-1.64V142.032a1.641,1.641,0,0,0-1.64-1.64H240.208a1.641,1.641,0,0,0-1.64,1.64v27.052a1.642,1.642,0,0,0,1.64,1.64h45.417a1.9,1.9,0,0,0,1.7-.928A12.28,12.28,0,0,1,298.2,163.25Z" transform="translate(-235.354 -137.178)"/><g class="h"><path class="i" d="M356.181,173.939h-45.4a5.08,5.08,0,0,1-4.536-2.636,9.1,9.1,0,0,0-16.082,0,5.081,5.081,0,0,1-4.538,2.639H240.208a4.86,4.86,0,0,1-4.854-4.854V142.032a4.86,4.86,0,0,1,4.854-4.854H356.181a4.86,4.86,0,0,1,4.854,4.854v27.052A4.86,4.86,0,0,1,356.181,173.939ZM298.2,163.25a12.3,12.3,0,0,1,10.882,6.547,1.9,1.9,0,0,0,1.7.928h45.4a1.642,1.642,0,0,0,1.64-1.64V142.032a1.641,1.641,0,0,0-1.64-1.64H240.208a1.641,1.641,0,0,0-1.64,1.64v27.052a1.642,1.642,0,0,0,1.64,1.64h45.417a1.9,1.9,0,0,0,1.7-.928A12.28,12.28,0,0,1,298.2,163.25Z" transform="translate(-235.354 -137.178)"/></g></g><g transform="translate(105.401 23.298)"><rect class="c" width="105.875" height="10.958" rx="1.159" transform="translate(0.063)"/><rect class="j" width="105.875" height="10.958" rx="1.159"/></g><g transform="translate(34.637 77.466)"><g transform="translate(121.422 193.469)"><rect class="k" width="28.605" height="28.605"/><path class="k" d="M298.282,315.817H276.345a3.334,3.334,0,0,1-3.334-3.334h0a3.334,3.334,0,0,1,3.334-3.334h21.938a3.334,3.334,0,0,1,3.334,3.334h0A3.334,3.334,0,0,1,298.282,315.817Z" transform="translate(-273.011 -275.693)"/><rect class="k" width="79.698" height="6.12" rx="1.904" transform="translate(40.697)"/><rect class="k" width="63.624" height="6.12" rx="1.904" transform="translate(40.697 16.074)"/><rect class="k" width="79.698" height="6.12" rx="1.904" transform="translate(40.697 32.148)"/><rect class="k" width="37.906" height="6.12" rx="1.904" transform="translate(40.697 48.221)"/></g><path class="l" d="M393.362,179.053H223.435a5.541,5.541,0,0,1-5.541-5.541h0a5.541,5.541,0,0,1,5.541-5.541H393.362a5.541,5.541,0,0,1,5.542,5.541h0A5.541,5.541,0,0,1,393.362,179.053Z" transform="translate(-185.066 -167.972)"/><path class="l" d="M388.226,197.6H276.072a3.06,3.06,0,0,1-3.061-3.06h0a3.059,3.059,0,0,1,3.061-3.059H388.226a3.059,3.059,0,0,1,3.059,3.059h0A3.059,3.059,0,0,1,388.226,197.6Z" transform="translate(-151.589 -153.694)"/><path class="l" d="M372.153,207.6H276.072a3.06,3.06,0,0,1-3.061-3.06h0a3.059,3.059,0,0,1,3.061-3.059h96.081a3.059,3.059,0,0,1,3.059,3.059h0A3.059,3.059,0,0,1,372.153,207.6Z" transform="translate(-151.589 -147.621)"/><path class="l" d="M388.226,217.6H276.072a3.06,3.06,0,0,1-3.061-3.06h0a3.059,3.059,0,0,1,3.061-3.059H388.226a3.059,3.059,0,0,1,3.059,3.059h0A3.059,3.059,0,0,1,388.226,217.6Z" transform="translate(-151.589 -141.547)"/><path class="l" d="M356.079,227.6H276.072a3.06,3.06,0,0,1-3.061-3.06h0a3.059,3.059,0,0,1,3.061-3.059h80.007a3.059,3.059,0,0,1,3.059,3.059h0A3.059,3.059,0,0,1,356.079,227.6Z" transform="translate(-151.589 -135.473)"/><g transform="translate(123.733 111.286)"><path class="m" d="M280.162,237.206l1.766,3.577,3.948.573-2.857,2.785.674,3.932-3.531-1.856-3.531,1.856.674-3.932-2.857-2.785,3.948-.573Z" transform="translate(-274.449 -237.206)"/><path class="m" d="M292.577,237.206l1.766,3.577,3.948.573-2.857,2.785.674,3.932-3.531-1.856-3.531,1.856.674-3.932-2.857-2.785,3.948-.573Z" transform="translate(-266.909 -237.206)"/><path class="m" d="M304.991,237.206l1.766,3.577,3.948.573-2.857,2.785.674,3.932-3.531-1.856-3.531,1.856.674-3.932-2.857-2.785,3.948-.573Z" transform="translate(-259.369 -237.206)"/><path class="m" d="M317.4,237.206l1.766,3.577,3.948.573-2.857,2.785.674,3.932-3.531-1.856-3.531,1.856.674-3.932-2.857-2.785,3.948-.573Z" transform="translate(-251.829 -237.206)"/><path class="m" d="M329.819,237.206l1.766,3.577,3.948.573-2.857,2.785.674,3.932-3.531-1.856-3.531,1.856.674-3.932-2.857-2.785,3.948-.573Z" transform="translate(-244.289 -237.206)"/></g><g transform="translate(123.733 131.765)"><path class="n" d="M280.162,249.947l1.766,3.577,3.948.574-2.857,2.785.674,3.932-3.531-1.856-3.531,1.856.674-3.932-2.857-2.785,3.948-.574Z" transform="translate(-274.449 -249.947)"/><path class="n" d="M292.577,249.947l1.766,3.577,3.948.574-2.857,2.785.674,3.932-3.531-1.856-3.531,1.856.674-3.932-2.857-2.785,3.948-.574Z" transform="translate(-266.909 -249.947)"/><path class="n" d="M304.991,249.947l1.766,3.577,3.948.574-2.857,2.785.674,3.932-3.531-1.856-3.531,1.856.674-3.932-2.857-2.785,3.948-.574Z" transform="translate(-259.369 -249.947)"/><path class="o" d="M317.4,249.947l1.766,3.577,3.948.574-2.857,2.785.674,3.932-3.531-1.856-3.531,1.856.674-3.932-2.857-2.785,3.948-.574Z" transform="translate(-251.829 -249.947)"/><path class="o" d="M329.819,249.947l1.766,3.577,3.948.574-2.857,2.785.674,3.932-3.531-1.856-3.531,1.856.674-3.932-2.857-2.785,3.948-.574Z" transform="translate(-244.289 -249.947)"/></g><g transform="translate(123.733 152.245)"><path class="n" d="M280.162,262.688l1.766,3.577,3.948.574-2.857,2.785.674,3.932-3.531-1.856-3.531,1.856.674-3.932-2.857-2.785,3.948-.574Z" transform="translate(-274.449 -262.688)"/><path class="n" d="M292.577,262.688l1.766,3.577,3.948.574-2.857,2.785.674,3.932-3.531-1.856-3.531,1.856.674-3.932-2.857-2.785,3.948-.574Z" transform="translate(-266.909 -262.688)"/><path class="n" d="M304.991,262.688l1.766,3.577,3.948.574-2.857,2.785.674,3.932-3.531-1.856-3.531,1.856.674-3.932-2.857-2.785,3.948-.574Z" transform="translate(-259.369 -262.688)"/><path class="n" d="M317.4,262.688l1.766,3.577,3.948.574-2.857,2.785.674,3.932L317.4,271.7l-3.531,1.856.674-3.932-2.857-2.785,3.948-.574Z" transform="translate(-251.829 -262.688)"/><path class="o" d="M329.819,262.688l1.766,3.577,3.948.574-2.857,2.785.674,3.932-3.531-1.856-3.531,1.856.674-3.932-2.857-2.785,3.948-.574Z" transform="translate(-244.289 -262.688)"/></g><g transform="translate(121.422 273.838)"><rect class="p" width="28.605" height="28.605"/><path class="p" d="M298.282,365.817H276.345a3.334,3.334,0,0,1-3.334-3.334h0a3.334,3.334,0,0,1,3.334-3.334h21.938a3.334,3.334,0,0,1,3.334,3.334h0A3.334,3.334,0,0,1,298.282,365.817Z" transform="translate(-273.011 -325.693)"/><rect class="p" width="79.698" height="6.12" rx="1.904" transform="translate(40.697)"/><rect class="p" width="63.624" height="6.12" rx="1.904" transform="translate(40.697 16.074)"/><rect class="p" width="79.698" height="6.12" rx="1.904" transform="translate(40.697 32.148)"/><rect class="p" width="37.906" height="6.12" rx="1.904" transform="translate(40.697 48.221)"/></g><g transform="translate(0 37.784)"><g class="an" transform="matrix(1, 0, 0, 1, -229.21, -115.25)"><rect class="i" width="103.158" height="136.978" transform="translate(229.21 115.25)"/></g><g transform="translate(4.821 4.821)"><rect class="q" width="93.517" height="127.337"/><g transform="translate(7.614 17.872)"><circle class="r" cx="20.052" cy="20.052" r="20.052" transform="translate(16.197)"/><path class="r" d="M256.187,251.441a58.117,58.117,0,0,1-72.5,0l1.865-8.086a35.287,35.287,0,0,1,68.767,0Z" transform="translate(-183.69 -172.387)"/></g></g></g><rect class="s" width="103.158" height="136.786" transform="translate(0 190.732)"/><g transform="translate(12.401 205.806)"><path class="t" d="M278.609,302.129H208.246a3.059,3.059,0,0,1-3.06-3.06h0a3.059,3.059,0,0,1,3.06-3.059h70.363a3.059,3.059,0,0,1,3.059,3.059h0A3.059,3.059,0,0,1,278.609,302.129Z" transform="translate(-205.186 -296.01)"/><rect class="t" width="76.483" height="6.12" rx="1.904" transform="translate(0 17.109)"/><path class="t" d="M246.462,323.419H208.246a3.059,3.059,0,0,1-3.06-3.06h0a3.061,3.061,0,0,1,3.06-3.06h38.215a3.06,3.06,0,0,1,3.059,3.06h0A3.059,3.059,0,0,1,246.462,323.419Z" transform="translate(-205.186 -283.08)"/><path class="t" d="M278.609,334.062H208.246a3.059,3.059,0,0,1-3.06-3.06h0a3.059,3.059,0,0,1,3.06-3.059h70.363A3.059,3.059,0,0,1,281.668,331h0A3.059,3.059,0,0,1,278.609,334.062Z" transform="translate(-205.186 -276.615)"/><path class="t" d="M278.609,344.708H208.246a3.061,3.061,0,0,1-3.06-3.06h0a3.06,3.06,0,0,1,3.06-3.06h70.363a3.06,3.06,0,0,1,3.059,3.06h0A3.06,3.06,0,0,1,278.609,344.708Z" transform="translate(-205.186 -270.15)"/><path class="t" d="M230.388,355.351H208.246a3.059,3.059,0,0,1-3.06-3.06h0a3.059,3.059,0,0,1,3.06-3.059h22.142a3.059,3.059,0,0,1,3.059,3.059h0A3.059,3.059,0,0,1,230.388,355.351Z" transform="translate(-205.186 -263.684)"/><path class="t" d="M262.536,366H208.246a3.059,3.059,0,0,1-3.06-3.059h0a3.06,3.06,0,0,1,3.06-3.06h54.289a3.059,3.059,0,0,1,3.059,3.06h0A3.059,3.059,0,0,1,262.536,366Z" transform="translate(-205.186 -257.219)"/></g></g></g><g transform="translate(123.478 232.279)"><g transform="translate(41.513 221.552)"><path class="u" d="M215.116,173.753A94,94,0,0,0,229,173.146a25.016,25.016,0,0,0,21.488-19.75,146.629,146.629,0,0,0,2.75-31.632c-13.062,3.728-25.819,6.135-38.118,6.546-12.3-.41-25.056-2.817-38.118-6.546a146.494,146.494,0,0,0,2.75,31.632,25.016,25.016,0,0,0,21.486,19.75A94.03,94.03,0,0,0,215.116,173.753Z" transform="translate(-176.983 -121.764)"/><g transform="translate(0.001)"><path class="v" d="M215.115,128.31c12.3-.41,25.056-2.817,38.118-6.546q.043,3.669-.062,7.3c-13.04,3.72-25.778,6.121-38.057,6.529-12.281-.408-25.019-2.809-38.057-6.529q-.1-3.629-.062-7.3C190.059,125.492,202.816,127.9,215.115,128.31Z" transform="translate(-176.984 -121.764)"/><rect class="w" width="10.211" height="7.565" transform="translate(33.024 6.261)"/><path class="u" d="M209.762,130.868h2.154v-8.211l-2.154.528Z" transform="translate(-142.504 -120.824)"/><path class="u" d="M182.475,130.868h-2.154v-8.211l2.154.528Z" transform="translate(-173.473 -120.824)"/><path class="u" d="M203.7,132.2h2.155v-8.212l-2.155.307Z" transform="translate(-148.882 -119.425)"/><path class="u" d="M188.538,132.2h-2.154v-8.212l2.154.307Z" transform="translate(-167.096 -119.425)"/></g></g><g transform="translate(39.316 240.027)"><g transform="translate(47.911 156.039)"><path class="u" d="M208.951,216.6c-3.416.183-7.052.4-9.689-1v-2.239l10.223-1.27Z" transform="translate(-199.262 -201.264)"/><path class="u" d="M199.262,214.5c18.164,4.826,31.663,5.407,39.185,2.628l.24-2.844L199.555,211Z" transform="translate(-199.262 -202.408)"/><path class="x" d="M199.362,216.481c5.735,3.529,36,5.6,39.216,2.208.16-1.951-3-4.063-8.7-6.355-.564-.224-1.151-.447-1.769-.681-.427-.16-.874-.32-1.332-.49-.6-.213-1.206-.427-1.834-.64h-.01c-.427-.15-.874-.3-1.321-.447H223.6c-.618-.2-1.256-.4-1.919-.618-1.576-.5-3.24-1-5-1.514C201.43,203.509,199.618,213.338,199.362,216.481Z" transform="translate(-199.157 -206.813)"/><path class="u" d="M208.564,211.545a.8.8,0,0,0,1.108.2l4.4-3.027c-.618-.2-1.256-.4-1.919-.618l-3.39,2.323A.8.8,0,0,0,208.564,211.545Z" transform="translate(-189.629 -205.457)"/><path class="u" d="M210.191,212.214a.805.805,0,0,0,1.12.127c.778-.628,1.652-1.237,2.5-1.822.577-.4,1.184-.831,1.761-1.258-.6-.213-1.207-.427-1.834-.64h-.01c-.277.193-.554.394-.831.587-.874.6-1.771,1.225-2.592,1.886A.8.8,0,0,0,210.191,212.214Z" transform="translate(-187.952 -204.911)"/><path class="u" d="M211.772,212.753a.787.787,0,0,0,.64.32.806.806,0,0,0,.478-.16l4.1-3.059c-.564-.224-1.151-.447-1.769-.681l-3.293,2.462A.8.8,0,0,0,211.772,212.753Z" transform="translate(-186.271 -204.332)"/></g><g transform="translate(0 3.004)"><g transform="translate(2.467 153.734)"><path class="u" d="M186.734,216.894c-3.423-.01-7.065,0-9.619-1.545l.127-2.235,10.28-.691Z" transform="translate(-177.115 -201.611)"/><g transform="translate(0.127)"><path class="u" d="M177.177,214.543c17.862,5.846,31.306,7.192,38.974,4.843l.4-2.827-38.884-5.493Z" transform="translate(-177.177 -203.04)"/><path class="x" d="M177.345,216.246c5.524,3.847,35.619,7.627,39.025,4.424.271-1.939-2.758-4.223-8.323-6.835-.552-.254-1.124-.513-1.728-.782-.417-.185-.856-.367-1.3-.564-.585-.246-1.178-.494-1.8-.743h-.01c-.417-.174-.856-.349-1.295-.521l-.008,0c-.605-.238-1.233-.476-1.882-.726-1.547-.589-3.178-1.184-4.906-1.793C180.144,203.411,177.778,213.121,177.345,216.246Z" transform="translate(-177 -207.154)"/><path class="u" d="M186.617,212.017a.777.777,0,0,0,.64.378.787.787,0,0,0,.456-.111l4.568-2.774c-.605-.238-1.233-.476-1.882-.726l-3.515,2.128A.8.8,0,0,0,186.617,212.017Z" transform="translate(-167.372 -205.44)"/><path class="u" d="M188.207,212.778a.8.8,0,0,0,1.11.191c.813-.583,1.719-1.141,2.606-1.678.6-.371,1.227-.763,1.826-1.155-.585-.246-1.178-.495-1.8-.743h-.01c-.285.174-.575.361-.864.538-.9.546-1.834,1.124-2.692,1.736A.8.8,0,0,0,188.207,212.778Z" transform="translate(-165.732 -204.8)"/><path class="u" d="M189.756,213.411a.782.782,0,0,0,.618.355.827.827,0,0,0,.49-.133l4.27-2.821c-.552-.254-1.124-.513-1.728-.782l-3.429,2.271A.8.8,0,0,0,189.756,213.411Z" transform="translate(-164.087 -204.13)"/></g></g><path class="u" d="M175.913,290.443c-.031-1.04.835-7.383.868-8.435,1.449-47.606,3.207-95.081,6.88-142.573.745-9.283,14.64-9.738,15.956-.525.741,5.206.033,10.931.006,16.159-.1,21.12.086,42.237.923,63.343q1.348,33.884,2.739,67.762c.006.162,0,.324,0,.484C198.1,289.194,189.6,292.524,175.913,290.443Z" transform="translate(-175.913 -132.231)"/></g><path class="u" d="M197.978,289.636c-.09-1.038.414-7.418.388-8.47-1.25-47.613-2.185-95.112-1.209-142.735.22-9.31,14.068-10.553,15.9-1.426,1.036,5.154.653,10.91.923,16.132,1.092,21.09,2.479,42.163,4.51,63.189q3.263,33.752,6.572,67.5c.016.16.023.322.033.482C219.043,288.649,210.2,291.495,197.978,289.636Z" transform="translate(-153.992 -130.768)"/></g><path class="y" d="M229.235,159.046c1.381.176,2.741.334,4.12.453,10.448.907,20.915-.435,31.283-1.951.453-.08.927-.14,1.381-.218l1.674-.236a34.518,34.518,0,0,1,.79-3.568c2.3-8.22,7.412-15.613,9.56-23.931,4.828-18.765-5.126-32.841-4.022-52.2.394-6.88-4.75-12.361-3.628-25.312,1.814-21.367-4.533-26.474-16.46-32.781a50.328,50.328,0,0,0-24.619-5.5h-.154a50.341,50.341,0,0,0-24.621,5.5c-11.926,6.308-18.274,11.413-16.46,32.781,1.124,12.952-4.022,18.43-3.626,25.31,1.1,19.358-16.881,33.559-12.051,52.326,2.146,8.318,7.254,15.711,9.56,23.931a35.021,35.021,0,0,1,.788,3.566c.552.08,1.122.158,1.676.238.453.078.925.137,1.379.218,10.37,1.516,28.866,2.731,39.313,1.824C226.5,159.38,227.86,159.222,229.235,159.046Z" transform="translate(-141.157 -13.788)"/><g transform="translate(159.485 172.631)"><rect class="z" width="25.869" height="5.159" rx="1.245" transform="translate(41.55 14.796)"/><path class="z" d="M253.922,106.94l-.006-.051a2.554,2.554,0,0,1,2.288-2.8l20.657-2.074a2.555,2.555,0,0,1,2.8,2.288l.006.049a2.553,2.553,0,0,1-2.288,2.8l-20.657,2.074A2.554,2.554,0,0,1,253.922,106.94Z" transform="translate(-214.043 -93.628)"/><path class="z" d="M254.72,110.1l0-.051a2.556,2.556,0,0,1,2.643-2.462l18.8.669a2.551,2.551,0,0,1,2.46,2.643l0,.053a2.551,2.551,0,0,1-2.643,2.46l-18.8-.669A2.554,2.554,0,0,1,254.72,110.1Z" transform="translate(-213.185 -87.754)"/><path class="z" d="M254.744,112.068l.006-.043a2.269,2.269,0,0,1,2.526-1.978L270.8,111.7a2.267,2.267,0,0,1,1.976,2.526l-.006.047a2.267,2.267,0,0,1-2.526,1.976L256.72,114.6A2.269,2.269,0,0,1,254.744,112.068Z" transform="translate(-213.176 -85.187)"/><path class="aa" d="M234.477,106.742l28.618-.142c.913-2.53,1.8-4.334,4.27-4.968a7.258,7.258,0,0,1,1.746-.222h5.413l.679,2.343,7.945.31c.293,7.276-1.112,13.27-3.5,19.762l-10.364-.942a7.4,7.4,0,0,1-5.846-2.975l-28.959.94Z" transform="translate(-234.477 -94.253)"/><path class="z" d="M257.307,102.1a19.535,19.535,0,0,0,8.337-3.757c2.214-1.756,6.874,2.278.843,6.012-1.742,1.079-4.617,3.041-6.7,3.082.989,3.726-1.28,7.857-4.767,9.613l-5.5-11.673C250.423,103.72,253.9,102.489,257.307,102.1Z" transform="translate(-218.651 -97.922)"/><path class="z" d="M262.687,107.253a10.379,10.379,0,0,1,4.213-6.4l5.3,1.631,2.39,3.632c-.353,4.36-2.306,8.93-7.219,8.661l-.027,0H234.477v-7.453Z" transform="translate(-234.477 -94.835)"/></g><path class="i" d="M207.845,93.575l22.778,39.317,6.215,10.75.575.985a11.49,11.49,0,0,0,11.08,5.684,11.345,11.345,0,0,0,4.678-1.5,11.511,11.511,0,0,0,4.206-15.757l-3.281-5.663L227.831,82a11.547,11.547,0,0,0-19.986,11.573Z" transform="translate(-104.646 51.899)"/><path class="i" d="M274.533,125.4l-42.3-1.239a11.542,11.542,0,1,1,.673-23.074l44.949,1.315Z" transform="translate(-89.139 78.032)"/><path class="y" d="M216.846,87.678a289.2,289.2,0,0,1,2.67,33.179l6.215,10.75c0-.018.021-.041.021-.059a7.3,7.3,0,0,0,.287-1.149,18.636,18.636,0,0,0-.226-6.568c-.021-.082-.021-.142-.041-.224C223.8,111.378,221.791,99.025,216.846,87.678Z" transform="translate(-93.538 63.933)"/><path class="ab" d="M183.047,60.851c2.1-7.487,1.239-16.181,6.094-22.257,2.329-2.912,5.7-4.8,9.111-6.3a51.276,51.276,0,0,1,26.589-4.4c9.026,1.092,17.8,5.232,23.775,12.086s8.9,16.475,6.966,25.36c-.852,3.913.661,1.916-.412,5.764-.856,5.066-4.028,13.881-3.152,17.542,2.245,9.387,2.983,18.808-3.322,26.115,1.861-4.408,3.572-9.275,2.294-13.887a35.385,35.385,0,0,0-2.877-6.213,19.94,19.94,0,0,1-2.758,3.25c.837,2.768,1.707,5.641,1.063,8.437a25.634,25.634,0,0,1-2.5,5.46c-.9,1.8-1.555,3.886-.93,5.795a11.7,11.7,0,0,1-1.518-6.814c.068-2.364.451-4.721.33-7.081-.035-.7-.115-1.391-.213-2.083a13.723,13.723,0,0,0-2.417,3.453c-2.378,5.128-.254,11.679-3.24,16.479-2.206,3.542-6.568,5.05-10.67,5.815a53.227,53.227,0,0,1-22.988-.79c.638-6.347,1.133-13.216-1.6-18.83-.107.185-.183.386-.3.566-1.252,1.927-2.975,3.5-4.373,5.319s-2.5,4.071-2.171,6.344c-1.841-3.066-.858-7.042.724-10.251,1.024-2.083,2.286-4.1,3.183-6.225-1.071-1.172-2.232-2.269-3.369-3.384-.747,1.828-1.586,3.636-2.352,5.45-1.777,4.213-3.148,8.94-1.787,13.3-2.912-5.827-3.172-10.957-2.07-17.378.431-2.512,1.289-4.455,1.9-6.929-2.969-4.383-5.14-12.982-5.14-18.285,0-2.395-2.672-5.518-3.406-7.8C180.378,64.928,182.038,64.45,183.047,60.851Z" transform="translate(-131.105 0.718)"/><rect class="ac" width="24.277" height="37.127" transform="translate(75.736 102.215)"/><path class="i" d="M167.116,334.093c4.74,3.632,6.732,1.211,10.793,2.033a13.233,13.233,0,0,1,4.884,2.214,6.342,6.342,0,0,0,.821.492v.021a14.089,14.089,0,0,0,9.952,1.518,33.32,33.32,0,0,1,3.324-.655q1.908-.246,3.693-.31a44.261,44.261,0,0,1,9.562.823c2.955.513,5.85,1.209,8.764,1.765h.019c1.354.246,2.711.49,4.085.654,6.523.821,9.929-1.824,14.936-2.665a18.92,18.92,0,0,1,7.551.328,25.379,25.379,0,0,1,2.811.8,18.828,18.828,0,0,0,14.056-1.067,13.546,13.546,0,0,0,2.257-1.457,12.061,12.061,0,0,1,7.756-2.912c3.942-.041,7.449,1.354,11.7-1.58a1544.545,1544.545,0,0,1-10.567-167.21v-1.108c-.082-11.513-.041-23.271.144-35.334q.216-13.235.657-26.964a27.908,27.908,0,0,0-6.669-17.5c-.739-.821-1.5-1.621-2.3-2.36-3.3-3.059-19.083-10.159-19.083-10.159-3.057,1.293-22.8-.882-25.811-2.111l-22.676,5.725a27.786,27.786,0,0,0-11.612,6.256c-.823.739.513.638-.207,1.457-4.227,4.824-4.84,7.8-6.648,17.051.308,8.456-1.929,18.508-1.865,26.882.039,2.4.039,4.822.039,7.223q.031,13.94-.328,27.842-.4,17.731-1.313,35.539v.041C173.766,242.66,170.071,286.735,167.116,334.093Z" transform="translate(-145.85 46.755)"/><path class="ad" d="M194.359,69.192c7.957,2.384,16.048,3.944,24.278,1.539l.4,5C213.649,79.466,199.828,78.4,193,74.478Z" transform="translate(-118.623 44.487)"/><rect class="ad" width="6.156" height="36.648" transform="translate(87.247 118.964)"/><path class="y" d="M213.435,260.72a6.066,6.066,0,0,0,.369,1.231,13.544,13.544,0,0,0,2.257-1.457,12.062,12.062,0,0,1,7.756-2.912c-1.97-37.388-8.844-74.589-7.428-112-1.97,22.1-3.94,44.323-2.175,66.441.7,8.926,2.011,17.833,1.724,26.757a87.965,87.965,0,0,1-1.949,15.348C213.538,256.308,213,258.547,213.435,260.72Z" transform="translate(-97.293 124.848)"/><path class="y" d="M201.54,239.956a24.645,24.645,0,0,0,.205,4.063,18.921,18.921,0,0,1,7.551.328c5.007-26.8,4.412-54.439,5.027-81.769a234.346,234.346,0,0,1-9.377,61.576C203.428,229.347,201.725,234.559,201.54,239.956Z" transform="translate(-109.651 142.721)"/><path class="y" d="M189.415,264.988c2.957.513,5.848,1.209,8.764,1.765a88.282,88.282,0,0,1-1.787-32.812c1.192-8.905,3.776-17.644,4.33-26.634.492-7.489-.451-15-1.375-22.448q-2.585-20.988-5.189-41.982-.157,14.681-.289,29.344c-.1,9.234-.185,18.506-1.19,27.7C190.3,221.711,182.952,244.305,189.415,264.988Z" transform="translate(-125.125 121.997)"/><path class="y" d="M201.469,199c.763-5.516.431-11.119.094-16.678q-.754-12.484-1.508-24.972c4.032,15.141,8.093,30.941,5,46.3-2.464,12.236-9.332,23.291-11.4,35.6C191.022,225.712,199.577,212.666,201.469,199Z" transform="translate(-118.457 137.225)"/><path class="y" d="M180.744,206.51c.759,7.118,2.442,14.423,2.278,21.463q1.908-.246,3.693-.31c1.046-4.553.41-9.316.062-16.046-.6-11.409-3.324-22.631-3.858-34.039A80.889,80.889,0,0,0,180.744,206.51Z" transform="translate(-131.986 158.5)"/><path class="y" d="M172.615,244.831a13.233,13.233,0,0,1,4.884,2.214,6.211,6.211,0,0,0,.821.492c.412-6.215-.369-12.7-.328-18.96.123-23.759,12.291-47.089,7.859-70.44-1.067,17.029-6.484,33.426-10.177,50.067C173.007,220.186,171.26,232.745,172.615,244.831Z" transform="translate(-140.56 138.051)"/><path class="y" d="M171.366,183.693c3.693-19.965,5.827-19.986,9.87-45.84a216.953,216.953,0,0,1,15.123-51.647c-4.309.349-7.551,3.94-10.116,7.407a108.844,108.844,0,0,0-10.506,17.423c.02,2.257-1.026,5.477-2.729,9.275q.031,13.94-.328,27.842Q172.279,165.886,171.366,183.693Z" transform="translate(-141.379 62.385)"/><path class="i" d="M207.113,76.8A11.539,11.539,0,0,0,191.342,81l-29.562,51.05a11.542,11.542,0,0,0,19.977,11.567l29.56-51.05A11.54,11.54,0,0,0,207.113,76.8Z" transform="translate(-153.099 50.849)"/><g transform="translate(3.554 222.967)"><path class="ae" d="M169.317,130.965h.057a2.74,2.74,0,0,1,2.711,2.768l-.23,22.163a2.742,2.742,0,0,1-2.768,2.713l-.055,0a2.739,2.739,0,0,1-2.713-2.768l.232-22.161A2.738,2.738,0,0,1,169.317,130.965Z" transform="translate(-150.242 -113.5)"/><path class="ae" d="M166.683,132.129h.057a2.828,2.828,0,0,1,2.877,2.77l-.23,22.163a2.829,2.829,0,0,1-2.934,2.711l-.057,0a2.825,2.825,0,0,1-2.877-2.77l.228-22.161A2.828,2.828,0,0,1,166.683,132.129Z" transform="translate(-153.188 -112.276)"/><path class="ae" d="M163.843,131.094l.057,0a2.764,2.764,0,0,1,2.766,2.768l-.228,22.163a2.769,2.769,0,0,1-2.823,2.711l-.057,0a2.765,2.765,0,0,1-2.766-2.768l.228-22.163A2.769,2.769,0,0,1,163.843,131.094Z" transform="translate(-156.056 -113.365)"/><path class="ae" d="M168.094,127.844l.057-.018a2.881,2.881,0,0,1,3.632,2.183,90.194,90.194,0,0,0,7.12,18.016,3.076,3.076,0,0,1-1.186,4.055l-.051.029a2.863,2.863,0,0,1-4.022-1.2,95.927,95.927,0,0,1-7.584-18.847A3.473,3.473,0,0,1,168.094,127.844Z" transform="translate(-150.65 -116.945)"/><path class="ae" d="M161.2,132.115h.049a2.435,2.435,0,0,1,2.407,2.458l-.261,14.772a2.432,2.432,0,0,1-2.458,2.407h-.049a2.431,2.431,0,0,1-2.407-2.458l.259-14.77A2.434,2.434,0,0,1,161.2,132.115Z" transform="translate(-158.484 -112.291)"/><rect class="af" width="14.656" height="14.13" transform="matrix(0.01, -1, 1, 0.01, 3.973, 14.655)"/><path class="af" d="M160.968,147.282h.049a2.435,2.435,0,0,0,2.458-2.409l-.01.891a2.741,2.741,0,0,0,2.713,2.77h.055A2.742,2.742,0,0,0,169,145.821l-.008.827a2.74,2.74,0,0,0,2.711,2.768h.055a2.739,2.739,0,0,0,2.768-2.711,2.74,2.74,0,0,0,2.711,2.768h.057a2.738,2.738,0,0,0,2.766-2.711l.06-5.62.01-1,.059-5.594a8.064,8.064,0,0,0-7.98-8.146l-5.4-.055a8.062,8.062,0,0,0-8.146,7.978l-.057,5.594-.01,1-.041,3.9A2.436,2.436,0,0,0,160.968,147.282Z" transform="translate(-158.405 -118.357)"/></g><path class="i" d="M179.98,155.4l5.946-41.9a11.542,11.542,0,0,0-22.854-3.244l-6.32,44.522Z" transform="translate(-156.752 77.247)"/><g transform="translate(91.222 178.202)"><path class="y" d="M233.434,100.637c1,24.241-11.743,48.583-32.225,61.586A134.807,134.807,0,0,0,233.434,100.637Z" transform="translate(-201.209 -100.637)"/><path class="y" d="M209.615,158.687l16.768-49.006A70.12,70.12,0,0,1,209.615,158.687Z" transform="translate(-192.367 -91.124)"/></g><path class="af" d="M184.918,39.541c.1-.021.193-.027.289-.043a7.242,7.242,0,0,1,6.189,2.284l-1.219,18.49a5.947,5.947,0,0,1-.7.2c-4.247.925-8.71-3.012-9.97-8.792S180.671,40.466,184.918,39.541Z" transform="translate(-133.163 13.168)"/><g transform="translate(118.25 54.002)"><path class="af" d="M215.491,41.85a7.238,7.238,0,0,1,6.433-1.494c.094.027.189.045.281.078,4.1,1.451,5.817,7.149,3.843,12.724s-6.9,8.922-10.994,7.471a5.461,5.461,0,0,1-.673-.291Z" transform="translate(-214.381 -40.108)"/><path class="ag" d="M226.914,46.1a13.311,13.311,0,0,0,.511-1.695,13.975,13.975,0,0,1-.809,4.373c-1.976,5.577-6.9,8.922-10.994,7.471a5.946,5.946,0,0,1-.673-.291l.148-2.442C219.617,54.761,224.845,51.523,226.914,46.1Z" transform="translate(-213.784 -35.584)"/><path class="ah" d="M216.622,53.5a5.758,5.758,0,0,0,.215-1.426,17.256,17.256,0,0,0-.121-1.748c-.064-.62-.183-1.311-.244-2.042a9.372,9.372,0,0,1,.023-2.38,5.634,5.634,0,0,1,.9-2.358,3.9,3.9,0,0,1,1.97-1.514,3.709,3.709,0,0,1,3.864.962,3.329,3.329,0,0,1,.847,2.475c-.068.618-.3.9-.38.87-.125-.029-.117-.343-.236-.835a3.26,3.26,0,0,0-1.018-1.713,2.637,2.637,0,0,0-2.592-.384,3.316,3.316,0,0,0-1.789,2.743,14.87,14.87,0,0,0,.066,3.384c.043-.016.072-.039.121-.053a2.271,2.271,0,0,1,2.616,3.16c-.3.568-.716.7-.866.566-.178-.142-.162-.466-.222-.833a1.936,1.936,0,0,0-1.471-1.777l-.125-.041c.021.55-.006,1.1-.031,1.613a5.975,5.975,0,0,1-.476,1.722,3.788,3.788,0,0,1-1.7,1.923,1.612,1.612,0,0,1-.669.205c-.16.014-.246,0-.265-.055C214.941,55.72,216.154,55.269,216.622,53.5Z" transform="translate(-213.694 -38.286)"/></g><path class="ag" d="M179.257,43.21A11.438,11.438,0,0,0,179.6,45a12.131,12.131,0,0,0,10.732,8.918l-.156,2.366a5.979,5.979,0,0,1-.7.2c-4.245.925-8.71-3.012-9.968-8.792A14.007,14.007,0,0,1,179.257,43.21Z" transform="translate(-133.161 17.156)"/><path class="af" d="M183.609,44.9a20.262,20.262,0,0,0,.2,2.462l1.1,18.139-.209,4.463.909,14.287.082.492c.677,5.973,6.761,12.073,11.829,15.808l9.786,7.264a7.942,7.942,0,0,0,4.68,1.477H226.15a7.937,7.937,0,0,0,4.68-1.477l6.322-6.771c5.048-3.734,9.221-10.327,9.9-16.3l.062-.494,2.072-14.507.472-3.324,2.709-19A16.943,16.943,0,0,0,250.6,36.767a12.849,12.849,0,0,0-7.366-6.1A98.228,98.228,0,0,0,217.3,26.136c-.308-.018-.616-.018-.923-.018s-.6,0-.9.018c-8.474.248-14.074,1.83-22.528,4.477C187.077,32.44,183.546,38.206,183.609,44.9Z" transform="translate(-128.501 -0.823)"/><path class="ah" d="M181.47,41.919a3.708,3.708,0,0,1,3.958-.47,3.905,3.905,0,0,1,1.763,1.748,5.7,5.7,0,0,1,.593,2.454,9.332,9.332,0,0,1-.277,2.362c-.152.718-.357,1.387-.5,2a17.465,17.465,0,0,0-.341,1.717,5.755,5.755,0,0,0,.037,1.442c.24,1.818,1.387,2.417,1.26,2.641-.025.049-.113.057-.271.023a1.633,1.633,0,0,1-.636-.287,3.779,3.779,0,0,1-1.445-2.12,6.074,6.074,0,0,1-.256-1.771c.041-.5.084-1.059.172-1.6-.043.008-.086.014-.129.027a1.931,1.931,0,0,0-1.681,1.578c-.107.357-.131.679-.326.8-.166.113-.562-.07-.786-.671a2.271,2.271,0,0,1,2.992-2.807c.045.021.072.047.113.068a15.093,15.093,0,0,0,.49-3.349,3.324,3.324,0,0,0-1.434-2.947,2.635,2.635,0,0,0-2.616.055,3.27,3.27,0,0,0-1.227,1.572c-.181.476-.211.788-.339.8-.086.014-.277-.291-.267-.911A3.326,3.326,0,0,1,181.47,41.919Z" transform="translate(-131.96 14.92)"/><path class="u" d="M184.952,34.482a28.752,28.752,0,0,1,5.1-6.3c5.569-5.23,13.186-8.526,21.291-9.868-.144-.035-.3-.07-.441-.1-.525-.094-1.034-.23-1.506-.285-.238-.039-.472-.078-.694-.113l-.644-.06a9.1,9.1,0,0,0-1.137-.055,4.955,4.955,0,0,0-.884.027l-.786.055s.209-.181.626-.49a4.143,4.143,0,0,1,.811-.5,6.428,6.428,0,0,1,1.168-.5c.228-.072.466-.15.714-.228s.513-.107.788-.16a11.771,11.771,0,0,1,1.763-.181,16.382,16.382,0,0,1,3.921.423c.46.113.9.234,1.328.359.142-.31,4.124-3.043,3.923-2.563a10.646,10.646,0,0,0-.556,1.664c-.051.187-.109.414-.172.646a9.805,9.805,0,0,1,2.44-.925,8.282,8.282,0,0,1,2.916-.189l.585.082c.181.049.351.094.511.14a3.648,3.648,0,0,1,.782.285c.412.2.62.32.62.32l-.673.14a5.25,5.25,0,0,0-.741.193l-.445.127-.48.189a16.053,16.053,0,0,0-2.193,1.059c-.029.014-.055.033-.082.049a46.6,46.6,0,0,1,15.927,3.693,31.569,31.569,0,0,1,14.15,11.6A28.488,28.488,0,0,1,257.212,49.6l-.907,19.858c-1.114-9.929-8.708-21.838-10.473-23.847a12.427,12.427,0,0,0-6.4-3.878c-.743-.181-1.49-.351-2.237-.517-9.449.669-17.133,7.346-26.632,8.154,1.82-.962,3.685-2.089,5.589-3.228-8.481,2.672-16.961,4.84-25.442,1.929a12.407,12.407,0,0,0-1.135,3.141,11.886,11.886,0,0,0-.254,1.8l-1.03,15.638a7.242,7.242,0,0,0-6.189-2.284L181.01,49.6A28.776,28.776,0,0,1,184.952,34.482Z" transform="translate(-131.235 -13.697)"/><path class="ah" d="M200.9,59.785c1.658.135,3.755.462,6.031.476.433,0,.852-.025,1.268-.047a.426.426,0,0,1,.082-.029c7.627-1.691,3.09-12.564,2.706-20.616,2.458,5.294,8.926,16.922,2.717,23.263-1.274,1.3-3.948,1.9-6.773,1.912a13.437,13.437,0,0,1-6.771-1.912c-1.543-.952-2.362-1.88-2.2-2.458C198.122,59.775,199.255,59.642,200.9,59.785Z" transform="translate(-113.425 13.327)"/><path class="ah" d="M226.567,44.321c-8.766-3.2-15.108-6.788-21.221-5.6-1.6.689-1.106,7.089-.142,7.953C211.775,40.747,222.068,46.993,226.567,44.321Z" transform="translate(-106.727 12.187)"/><path class="ah" d="M189.184,43.849c8.768-3.2,16-5.8,22.111-4.623-.185,1.176.964,5.944,0,6.808C204.725,40.11,193.684,46.52,189.184,43.849Z" transform="translate(-122.636 12.66)"/><g class="ai" transform="translate(51.252 7.714)"><path class="aj" d="M205.115,30.625c-4.053,1.246-9.621,1.157-11.9-3.014,8.764,4.746,17.554-7.9,26.556-3.033-4.473.359-8.148,3.156-12.119,5.033,6.123-2.442,12.275-4.678,19-3.174-12.826,2.212-27,16.239-40.012,7.231C193.171,35.084,199.163,32.989,205.115,30.625Z" transform="translate(-176.56 -11.352)"/><path class="aj" d="M206.368,17.55c-14.932,5.095-23.977,17.513-24.249,33.288C179.543,34.478,190.008,20.113,206.368,17.55Z" transform="translate(-181.73 -17.55)"/><path class="aj" d="M183.243,47.853a27.08,27.08,0,0,1,5.694-23.345A101.835,101.835,0,0,0,183.243,47.853Z" transform="translate(-180.815 -10.231)"/><path class="aj" d="M223.573,42.171a38.921,38.921,0,0,0-12.646-22.284A21.666,21.666,0,0,1,223.573,42.171Z" transform="translate(-151.017 -15.092)"/></g><g class="ak" transform="translate(86.996 54.545)"><path class="i" d="M200.694,57.632a1.653,1.653,0,0,0,1.951-1.141c.029-.189.082-1.276.146-2.811.084-1.539.265-3.5.425-5.485.082-.989.166-1.97.244-2.889.049-.919.094-1.777.133-2.509.074-1.457.123-2.423.123-2.423l-.665,2.333c-.2.7-.435,1.516-.685,2.395-.279.874-.577,1.81-.876,2.75-.587,1.88-1.209,3.815-1.623,5.331-.4,1.525-.675,2.622-.7,2.817A1.569,1.569,0,0,0,200.694,57.632Z" transform="translate(-199.149 -40.373)"/></g><g transform="translate(104.865 52.897)"><path class="al" d="M207.858,43.227a4.233,4.233,0,0,0,8.388,0,4.234,4.234,0,0,0-8.388,0Z" transform="translate(-207.858 -39.57)"/><path class="u" d="M208.8,42.448a2.259,2.259,0,1,0,2.255-2.138A2.2,2.2,0,0,0,208.8,42.448Z" transform="translate(-206.864 -38.792)"/><path class="i" d="M210.5,42.415a.793.793,0,0,0,.792.792h0a.793.793,0,0,0,.792-.792h0a.793.793,0,0,0-.792-.792h0a.793.793,0,0,0-.792.792Z" transform="translate(-205.079 -37.41)"/><path class="i" d="M208.433,40.993a1.115,1.115,0,0,0,1.116,1.116h0a1.116,1.116,0,0,0,1.116-1.116h0a1.117,1.117,0,0,0-1.116-1.116h0a1.116,1.116,0,0,0-1.116,1.116Z" transform="translate(-207.253 -39.247)"/></g><path class="u" d="M204.557,44.056c.222.277.646.176,1.219-.146a17.65,17.65,0,0,1,2.368-1.223c2.031-.835,5.064-.769,8.4-.09,3.347.657,6.369,3.252,8.444,4.284,3.806,2.274,4.364-.884,1.685-2.706a33.422,33.422,0,0,0-9.49-5.267c-3.97-1.52-9.268-2.339-11.53-.57C204.537,39.248,204.338,43.781,204.557,44.056Z" transform="translate(-106.548 10.978)"/><g transform="translate(74.778 52.347)"><path class="al" d="M193.195,42.959a4.234,4.234,0,0,0,8.388,0,4.234,4.234,0,0,0-8.388,0Z" transform="translate(-193.195 -39.302)"/><path class="u" d="M194.141,42.18a2.258,2.258,0,1,0,2.253-2.138A2.2,2.2,0,0,0,194.141,42.18Z" transform="translate(-192.2 -38.524)"/><path class="i" d="M195.837,42.147a.791.791,0,0,0,.792.79h0a.791.791,0,0,0,.792-.79h0a.793.793,0,0,0-.792-.792h0a.793.793,0,0,0-.792.792Z" transform="translate(-190.416 -37.142)"/><path class="i" d="M193.644,40.748a1.16,1.16,0,0,0,1.161,1.161h0a1.16,1.16,0,0,0,1.161-1.161h0a1.16,1.16,0,0,0-1.161-1.161h0a1.16,1.16,0,0,0-1.161,1.161Z" transform="translate(-192.723 -39.002)"/></g><path class="u" d="M212.51,43.558c-.205.289-.636.213-1.225-.08a17.957,17.957,0,0,0-2.429-1.092c-2.077-.724-5.1-.494-8.4.365-3.306.837-6.182,3.591-8.2,4.736-3.677,2.477-4.4-.646-1.828-2.61a33.371,33.371,0,0,1,9.191-5.774c3.882-1.734,9.127-2.838,11.48-1.194C212.268,38.758,212.713,43.274,212.51,43.558Z" transform="translate(-122.932 10.731)"/><path class="i" d="M171.777,131.9c1.477,5.807,3.987,11.417,6.41,16.9.718-.821,8.774-7.949,9.6-8.686-3.878-10.28-5.887-16.647-4.74-27.4.8-7.43,4.289-14.406,4.863-21.875.369-4.925,4.444-9.287,7.5-13.145,2.75-3.488,4.643-1.5,7.147-5.171,2.462-3.632.575-11,3.3-14.425,2.729-3.447,5.068-4.063,9.461-4.042,4.1.041,13.138,2.867,17.242,2.885,4.1-.018,6.989-2.706,11.093-2.75,4.391-.021,15.972.71,18.722,4.157,2.709,3.449.1,9.872,2.565,13.5,2.5,3.673,1.408,1.219,4.178,4.705,3.057,3.858,2.3,9.359,2.667,14.281.575,7.471,4.063,14.445,4.884,21.875,1.149,10.855-6.888,26.607-10.787,36.99.8.739,2.017,4.84,2.758,5.661,2.138-6.472,8.5-19.856,10.02-25.764,4.822-18.757-5.13-32.831-4.022-52.2.39-6.874-4.76-12.353-3.632-25.3,1.806-21.381-4.535-26.47-16.456-32.792a50.3,50.3,0,0,0-24.623-5.5h-.164a50.3,50.3,0,0,0-24.623,5.5c-11.922,6.322-18.262,11.411-16.456,32.79,1.129,12.95-4.022,18.426-3.609,25.3C186.163,96.763,166.937,113.139,171.777,131.9Z" transform="translate(-141.77 -13.79)"/><path class="y" d="M222.4,36.985c-.437,3.049-2,6.189-.878,9.057.811,2.074,2.881,3.47,3.654,5.561,1.213,3.279-1.122,7.171.349,10.344a16.694,16.694,0,0,0,2.284,3.031,4.126,4.126,0,0,1,1.055,3.511,6.561,6.561,0,0,0-3.25-3.673c-1.428-.88-1.377-2.191-2.423-3.5-2.4-3-.037-7.506-2.064-10.766-1.555-2.505-7.531-3.314-8.926-5.914a8.73,8.73,0,0,1-.334-6.353c.562-2.1,1.514-4.075,2.081-6.174a17.582,17.582,0,0,0-1.4-12.607,26.662,26.662,0,0,1,7.436,7.418A15.134,15.134,0,0,1,222.4,36.985Z" transform="translate(-99.233 -7.786)"/><path class="y" d="M211.793,43.845c1.623-3.425-.018-7.613,1.157-11.214a48.179,48.179,0,0,1,2.245-4.49,10.914,10.914,0,0,0-.213-9.217c-.008,3.025-2.163,5.581-4.332,7.691s-4.582,4.241-5.384,7.157c-.749,2.725.043,5.756-1.02,8.374-1.166,2.864-4.188,4.432-6.979,5.764a25.529,25.529,0,0,0,8.068.318A8.643,8.643,0,0,0,211.793,43.845Z" transform="translate(-114.133 -8.389)"/><path class="y" d="M196.109,34.351c-.289,2.306-.217,4.689-.958,6.89-.952,2.823-3.152,5.074-4.231,7.851-1.533,3.94-.687,8.591-2.647,12.338-1.713,3.275-5.2,5.159-8.483,6.853a16.375,16.375,0,0,0,5.542-12.472c-.047-2.62-.732-5.2-.739-7.822a30.368,30.368,0,0,1,1.049-6.886,24.12,24.12,0,0,1,2.75-7.723c3.137-4.886,9.293-6.88,13.321-11.062A21.9,21.9,0,0,0,196.109,34.351Z" transform="translate(-132.518 -4.819)"/><path class="y" d="M200.783,29.763a12.213,12.213,0,0,0-2.548,7.032,6.532,6.532,0,0,0,3.827,6.051c1.781-1.227,2.5-3.519,2.67-5.674s-.088-4.344.291-6.472c.33-1.863,1.139-3.609,1.541-5.458a6.253,6.253,0,0,0-.9-5.394,8.446,8.446,0,0,1-1.5,5.36C203.159,26.81,201.87,28.216,200.783,29.763Z" transform="translate(-113.117 -7.418)"/><path class="u" d="M264.138,38.269a3.077,3.077,0,0,0,.478-6.117,268.4,268.4,0,0,0-84.085,0,3.077,3.077,0,1,0,.962,6.078,262.34,262.34,0,0,1,82.161,0A3.227,3.227,0,0,0,264.138,38.269Z" transform="translate(-134.471 2.04)"/><path class="u" d="M264.138,35.507a3.077,3.077,0,0,0,.478-6.117,268.4,268.4,0,0,0-84.085,0,3.078,3.078,0,0,0,.962,6.08,262.34,262.34,0,0,1,82.161,0A2.978,2.978,0,0,0,264.138,35.507Z" transform="translate(-134.471 -0.866)"/><g transform="translate(80.587 83.516)"><path class="u" d="M215.8,63.832c-1.2-1.953-.064-4.894.667-7.157-9.443.24-16.144,1.83-20.01-1.916C197.438,62.291,202.352,65,215.8,63.832Z" transform="translate(-195.577 -54.212)"/><path class="i" d="M196.206,54.758c4.68,1.744,13.128,2.109,20.511,1.925-.265,1.326-.646,2.464-.8,3.794-10.1,1.2-15.785-.226-18.713-2.553Z" transform="translate(-195.837 -54.212)"/><path class="am" d="M196.026,54.492l.513.226c.269.123.583.2.891.316A33.01,33.01,0,0,0,207.9,56.1a33.212,33.212,0,0,0,10.436-1.061v1.389A27.056,27.056,0,0,1,207.9,57.913c-4.262.1-8.288-.431-10.945-1.691-.328-.164-.646-.3-.927-.472l-.006,0Z" transform="translate(-196.026 -54.492)"/></g><path class="u" d="M211.419,52.357c-2.75,0-12.5.053-16.464,5.907-2.438,3.6-4.531,7.52-2.512,17.172,5.4,7.674,12.97,11.156,19.181,11.158s14.622-3.455,16.8-12.816c.876-6.008.985-8.384.64-10.848C227.7,53.131,215.73,52.357,211.419,52.357Zm.07,15.886c-1.826-.072-1.841,3.141-4.4,3.361-9.576.823-9.909-8.61-7.461-10.842a7.12,7.12,0,0,1,2.665-1.481,40.734,40.734,0,0,1,18.664,0,7.094,7.094,0,0,1,2.668,1.481c2.448,2.232,3.224,7.375.41,9.874-.01.008-.025.01-.035.021a5.627,5.627,0,0,1-5.189,1.305c-1.744-.562-1.539-3.64-3.367-3.57Z" transform="translate(-120.062 26.778)"/></g></g></svg>