<svg xmlns="http://www.w3.org/2000/svg" width="66.835" height="62.684" viewBox="0 0 66.835 62.684"><defs><style>.a{fill:#ddd;}</style></defs><path class="a" d="M72.4,35.011c-1.171,11.253-5.442,19.065-14.243,19.065S45.289,47.047,43.911,35.293C42.768,24.792,49.353,15.8,58.154,15.8S73.4,24.489,72.4,35.011Z" transform="translate(-25.218 -15.8)"/><path class="a" d="M45.753,89.134c-.833,1.82-1.489,6.035,1.079,8.128,4.263,3.473,5.563,4.5,11.016,5.658,12.089,2.577,10.965,9.024,13.255,14.224l-66.835-.056c1.975-4.91,1.051-11.427,13.217-14.431,4.421-1.092,6.232-2.116,9.954-5.342,2.321-2.012,1.851-6.119,1.336-8.338C26.925,88.77,46.508,88.446,45.753,89.134Z" transform="translate(-4.268 -54.459)"/></svg>