<svg xmlns="http://www.w3.org/2000/svg" width="582" height="371.836" viewBox="0 0 582 371.836"><defs><style>.a{fill:#eb1a2d;}.b{fill:#fff;}.c{fill:#f4f4f4;}.d{fill:#e6e6e6;}.e{fill:#3f3d56;}.f{fill:#fbbebe;}.g{fill:#2f2e41;}</style></defs><g transform="translate(-975 -2284)"><g transform="translate(907.863 2335.031)"><path class="a" d="M810.816,630.232H704.668s-2.152-31.558,10.579-31.916,11.3,13.986,27.254-5.738,35.323-18.648,37.833-6.993-4.841,20.979,8.607,18.11S821.754,608.357,810.816,630.232Z" transform="translate(-331.394 -322.759)"/><path class="b" d="M826.624,614.348a37.4,37.4,0,0,0-37.634,22.267c-.6,1.377,1.43,2.578,2.035,1.19a35.076,35.076,0,0,1,35.6-21.1c1.51.136,1.5-2.222,0-2.357Z" transform="translate(-349.464 -330.682)"/><path class="b" d="M717.061,605.128a38.491,38.491,0,0,1,9.146,28.847c-.148,1.509,2.21,1.5,2.357,0a40.8,40.8,0,0,0-9.837-30.513c-1-1.146-2.66.527-1.667,1.667Z" transform="translate(-334.013 -328.3)"/><path class="b" d="M785.843,579.222a157.294,157.294,0,0,0-16.111,37.469q-1.586,5.606-2.744,11.319c-.3,1.481,1.97,2.114,2.273.627a154.824,154.824,0,0,1,13.12-38.159q2.561-5.134,5.5-10.066a1.179,1.179,0,0,0-2.035-1.19Z" transform="translate(-344.768 -323.072)"/></g><g transform="translate(975 2284)"><rect class="c" width="275.27" height="360.473" transform="translate(63.694)"/><rect class="b" width="242.5" height="65.541" transform="translate(80.079 18.679)"/><rect class="b" width="150.743" height="235.946" transform="translate(171.18 106.503)"/><rect class="d" width="61.23" height="4.602" transform="translate(183.081 43.169)"/><rect class="d" width="77.058" height="4.602" transform="translate(174.888 55.127)"/><rect class="d" width="61.23" height="4.602" transform="translate(213.23 160.951)"/><rect class="a" width="94.553" height="4.602" transform="translate(213.23 174.462)"/><rect class="d" width="77.058" height="4.602" transform="translate(214.213 187.329)"/><rect class="d" width="44.985" height="4.602" transform="translate(213.23 201.447)"/><rect class="a" width="67.895" height="4.602" transform="translate(213.23 215.237)"/><rect class="d" width="7.498" height="7.498" transform="translate(185.322 159.503)"/><rect class="a" width="7.498" height="7.498" transform="translate(185.322 173.014)"/><rect class="d" width="7.498" height="7.498" transform="translate(185.322 185.881)"/><rect class="d" width="7.498" height="7.498" transform="translate(185.322 199.999)"/><rect class="a" width="7.498" height="7.498" transform="translate(185.322 213.789)"/><rect class="d" width="61.23" height="4.602" transform="translate(213.23 229.113)"/><rect class="a" width="94.553" height="4.602" transform="translate(213.23 242.624)"/><rect class="d" width="77.058" height="4.602" transform="translate(214.213 255.491)"/><rect class="d" width="44.985" height="4.602" transform="translate(213.23 269.609)"/><rect class="d" width="67.895" height="4.602" transform="translate(213.23 283.399)"/><rect class="d" width="7.498" height="7.498" transform="translate(185.322 227.666)"/><rect class="a" width="7.498" height="7.498" transform="translate(185.322 241.176)"/><rect class="d" width="7.498" height="7.498" transform="translate(185.322 254.043)"/><rect class="d" width="7.498" height="7.498" transform="translate(185.322 268.161)"/><rect class="d" width="7.498" height="7.498" transform="translate(185.322 281.951)"/><path class="a" d="M328.821,215.1a19.485,19.485,0,1,0,19.485,19.485A19.485,19.485,0,0,0,328.821,215.1Zm0,5.845a5.845,5.845,0,1,1-5.845,5.845A5.845,5.845,0,0,1,328.821,220.947Zm0,28.14a14.2,14.2,0,0,1-11.691-6.239c.094-3.9,7.794-6.042,11.691-6.042s11.6,2.145,11.691,6.042a14.218,14.218,0,0,1-11.691,6.239Z" transform="translate(-208.839 -183.137)"/><rect class="e" width="582" height="1.469" transform="translate(0 359.688)"/><path class="f" d="M865.82,335.176s6.652,14.044,11.088,15.523l-12.566,19.218-10.348-12.566s.739-8.87-1.478-12.566S865.82,335.176,865.82,335.176Z" transform="translate(-395.94 -224.514)"/><circle class="f" cx="14.044" cy="14.044" r="14.044" transform="translate(445.487 95.139)"/><path class="f" d="M671.817,316.493l3.7,10.348,4.435-5.174-3.722-11.787Z" transform="translate(-231.504 -106.783)"/><path class="g" d="M842.114,477.629s-4.435,18.479-2.217,27.349,8.87,69.482,8.87,69.482l4.435,48.046,17.74,1.478-2.217-56.176,2.217-48.785,12.566,47.307v57.655l21.436.739-2.217-74.655s1.478-57.655-8.131-65.046-11.087-8.87-11.087-8.87Z" transform="translate(-391.453 -273.094)"/><path class="g" d="M863.178,698.327,861.7,703.5l-2.218,6.653s-6.652,13.3,4.435,11.087,9.609-7.392,9.609-7.392,3.7-2.217,2.957-2.957-.739-11.827-.739-11.827Z" transform="translate(-397.734 -349.654)"/><path class="g" d="M924.527,698.327l1.478,5.174,2.217,6.653s6.653,13.3-4.435,11.087-9.609-7.392-9.609-7.392-3.7-2.217-2.957-2.957.739-11.827.739-11.827Z" transform="translate(-416.212 -349.654)"/><path class="d" d="M859.791,367.654l9.041-13.3,16.83,8.87,2.217,76.873s-9.609-5.913-24.392,1.478-24.392,2.217-24.392,2.217l8.87-33.262-3.7-44.35,5.286-4.8Z" transform="translate(-391.391 -231.121)"/><path class="g" d="M842.951,362.927l-3.07,2.5s-19.218,9.609-19.957,16.262l13.3,36.219s3.7,8.131.739,11.087-5.913,10.348-5.174,14.044-4.435,19.218,1.478,19.218,19.957-35.48,19.218-49.524S848.238,361.9,842.951,362.927Z" transform="translate(-384.784 -234.07)"/><path class="g" d="M824.9,384.8l-4.556.487s-4.314,3.208-4.314,10.6-.739,29.566-.739,29.566-1.478,11.087,2.957,19.218,5.174,10.348,5.174,10.348l7.392-8.87V427.67l2.957-11.827Z" transform="translate(-383.105 -241.614)"/><path class="g" d="M880.956,349.709l7.226,3.041s25.132,6.653,28.827,17.74l-10.348,25.871s7.392,47.306,5.174,47.306h-2.217s5.913,4.435,2.217,5.913-12.566,13.3-14.783,8.131-15.522-66.525-14.044-79.83S879.643,351.1,880.956,349.709Z" transform="translate(-405.737 -229.522)"/><path class="g" d="M852.773,303.754v-1.478h-3.7s-5.913-3.7-11.087.739-7.392,6.652-7.392,6.652l-2.217,2.957,2.217.739-2.217,2.217H830.6L829.12,317.8l4.143,5.544s-.448-5.544,3.987-5.544,9.609-5.913,9.609-5.913l11.087,8.131s-.739-4.414,1.848-4.425C859.8,315.59,860.9,304.492,852.773,303.754Z" transform="translate(-387.699 -212.679)"/><path class="f" d="M936.8,486.3l-1.478,15.522s0,22.914-8.131,20.7-1.478-21.436-1.478-21.436l1.123-13.9Z" transform="translate(-420.357 -276.591)"/><path class="g" d="M918.392,375.466s9.609-3.7,12.566,7.392,6.653,33.262,6.653,33.262a33.262,33.262,0,0,1,0,24.392L935.392,451.6l-12.566-1.478L919.87,424.99l-2.957-31.784Z" transform="translate(-418.207 -238.194)"/></g></g></svg>