<svg xmlns="http://www.w3.org/2000/svg" xmlns:xlink="http://www.w3.org/1999/xlink" width="821.987" height="1144.954" viewBox="0 0 821.987 1144.954"><defs><style>.a{fill:#fff;}.b,.c,.d,.e,.f,.k,.l,.m,.o,.p,.q,.r,.s,.t{isolation:isolate;}.c,.d,.e,.f,.i,.k,.l,.m,.q,.t{fill:#2d2c2d;}.c,.f{font-size:10px;}.c,.k,.m,.o,.p{font-family:Montserrat-Regular, Montserrat;}.d{font-size:7px;}.d,.e{font-family:Montserrat-Medium, Montserrat;font-weight:500;}.e,.l,.o,.t{font-size:5px;}.f,.l,.q,.r,.s{font-family:Montserrat-SemiBold, Montserrat;font-weight:600;}.g,.r{fill:#aeb0b3;}.h,.j,.n{fill:none;}.h,.j{stroke:#aeb0b3;}.h,.n{stroke-miterlimit:10;}.j{stroke-miterlimit:10.004;}.k{font-size:3px;}.l{letter-spacing:0.025em;}.m,.q,.r{font-size:9px;}.n{stroke:#060707;}.o,.p{fill:#3b3c3e;}.p{font-size:6px;}.q{letter-spacing:0.42em;}.r{letter-spacing:0.38em;}.s{fill:#060707;font-size:31px;letter-spacing:0.579em;}.t{font-family:OpenSans-Bold, Open Sans;font-weight:700;}.u{filter:url(#a);}</style><filter id="a" x="0" y="0" width="821.987" height="1144.954" filterUnits="userSpaceOnUse"><feOffset dy="3" input="SourceAlpha"/><feGaussianBlur stdDeviation="3" result="b"/><feFlood flood-opacity="0.161"/><feComposite operator="in" in2="b"/><feComposite in="SourceGraphic"/></filter></defs><g transform="translate(9 38.134)"><g transform="translate(0 -32.134)"><g class="u" transform="matrix(1, 0, 0, 1, -9, -6)"><rect class="a" width="803.987" height="1126.954" transform="translate(9 6)"/></g><g transform="translate(306.773 502.986)"><g class="b" transform="translate(153.204 39.847)"><text class="c" transform="translate(0 10)"><tspan x="0" y="0">Porttitor amet massa Done cporttitor </tspan></text><text class="c" transform="translate(0 32.725)"><tspan x="0" y="0">dolor et nisl molestie ium feliscon</tspan></text></g><g class="b" transform="translate(152.076 0)"><text class="d" transform="translate(0 7)"><tspan x="0" y="0">DEV CREATIVE SOLUTIONS</tspan></text></g><g class="b" transform="translate(0.809 38.806)"><text class="e" transform="translate(0 5)"><tspan x="0" y="0">2010 - 2013</tspan></text></g><g class="b" transform="translate(0 1.31)"><text class="d" transform="translate(0 7)"><tspan x="0" y="0">LEAD WEB DESIGNER</tspan></text></g></g><g transform="translate(306.773 407.204)"><g class="b" transform="translate(152.205 0)"><text class="d" transform="translate(0 7)"><tspan x="0" y="0">WEB TECH LTD</tspan></text></g><g class="b" transform="translate(152.389 33.294)"><text class="c" transform="translate(0 10)"><tspan x="0" y="0">Porttitor amet massa Done cporttitor </tspan></text><text class="c" transform="translate(0 32.725)"><tspan x="0" y="0">dolor et nisl molestie ium feliscon</tspan></text></g><g class="b" transform="translate(0 32.253)"><text class="e" transform="translate(0 5)"><tspan x="0" y="0">2013 - 2015</tspan></text></g><g class="b" transform="translate(0.127 1.31)"><text class="d" transform="translate(0 7)"><tspan x="0" y="0">WEB DESIGNER</tspan></text></g></g><g transform="translate(306.773 308.833)"><g class="b" transform="translate(152.959 31.924)"><text class="c" transform="translate(0 10)"><tspan x="0" y="0">Porttitor amet massa Done cporttitor </tspan></text><text class="c" transform="translate(0 32.725)"><tspan x="0" y="0">dolor et nisl molestie ium feliscon</tspan></text></g><g class="b" transform="translate(152.705 0)"><text class="d" transform="translate(0 7)"><tspan x="0" y="0">SOFT DESIGN STUDIOS</tspan></text></g><g class="b" transform="translate(0.276 30.897)"><text class="e" transform="translate(0 5)"><tspan x="0" y="0">2015 - 2017</tspan></text></g><g class="b" transform="translate(0 1.31)"><text class="d" transform="translate(0 7)"><tspan x="0" y="0">GRAPHIC DESIGNER</tspan></text></g></g><g class="b" transform="translate(352.442 254.491)"><text class="f" transform="translate(0 10)"><tspan x="0" y="0">EXPERIENCE</tspan></text></g><rect class="g" width="447.169" height="1.311" transform="translate(306.773 288.011)"/><path class="h" d="M394.625,315.954a14.638,14.638,0,1,1-14.638-14.639h0a14.637,14.637,0,0,1,14.638,14.635Z" transform="translate(-58.575 -49.036)"/><g transform="translate(311.438 258.733)"><path class="i" d="M383.569,320.681v-.444a.979.979,0,1,0-1.959,0v.444a.979.979,0,1,0,1.959,0Z" transform="translate(-372.62 -310.645)"/><path class="i" d="M382.6,321.548a1.72,1.72,0,0,1-3.3,0h-6.733a2.742,2.742,0,0,1-1.187-.273v4.471a1.593,1.593,0,0,0,1.587,1.587h15.965a1.593,1.593,0,0,0,1.587-1.587v-4.471a2.744,2.744,0,0,1-1.176.27Z" transform="translate(-370.98 -310.969)"/><path class="i" d="M389.191,311.548h-3.81A3.022,3.022,0,0,0,382.4,309h-3.054a3.026,3.026,0,0,0-2.982,2.547h-3.811a1.626,1.626,0,0,0-1.654,1.589V316.8a1.589,1.589,0,0,0,1.587,1.589h6.661a1.713,1.713,0,0,1,.529-1.164c0-.009.019-.015.029-.025a2.452,2.452,0,0,1,.219-.175c.028-.018.061-.029.091-.049a1.609,1.609,0,0,1,.2-.1,1.209,1.209,0,0,1,.17-.053,1.139,1.139,0,0,1,.147-.045,1.686,1.686,0,0,1,.686,0,1.157,1.157,0,0,1,.149.045,1.173,1.173,0,0,1,.168.053,1.666,1.666,0,0,1,.2.1c.029.018.06.031.09.049a2.087,2.087,0,0,1,.217.175c0,.01.022.016.029.025a1.727,1.727,0,0,1,.529,1.164h6.661a1.587,1.587,0,0,0,1.587-1.587v-3.663a1.627,1.627,0,0,0-1.654-1.589Zm-11.294,0a1.533,1.533,0,0,1,1.452-1.056H382.4a1.536,1.536,0,0,1,1.452,1.056Z" transform="translate(-370.903 -309.001)"/></g><g transform="translate(306.773 859.618)"><g class="b" transform="translate(0 1.232)"><text class="d" transform="translate(0 7)"><tspan x="0" y="0">UNIVERSITY OF LOREM</tspan></text></g><g class="b" transform="translate(152.076 0)"><text class="d" transform="translate(0 7)"><tspan x="0" y="0">BECHELOR OF ART DIRECTOR</tspan></text></g><g class="b" transform="translate(0.495 25.872)"><text class="e" transform="translate(0 5)"><tspan x="0" y="0">2007 - 2009</tspan></text></g><g class="b" transform="translate(153.204 28.88)"><text class="c" transform="translate(0 10)"><tspan x="0" y="0">Porttitor amet massa Done cporttitor </tspan></text><text class="c" transform="translate(0 32.725)"><tspan x="0" y="0">dolor et nisl molestie ium feliscon</tspan></text></g></g><g transform="translate(306.773 766.49)"><g class="b" transform="translate(0 1.232)"><text class="d" transform="translate(0 7)"><tspan x="0" y="0">UNIVERSITY OF LOREM</tspan></text></g><g class="b" transform="translate(152.076 0)"><text class="d" transform="translate(0 7)"><tspan x="0" y="0">BECHELOR OF ART DIRECTOR</tspan></text></g><g class="b" transform="translate(0.495 25.871)"><text class="e" transform="translate(0 5)"><tspan x="0" y="0">2007 - 2009</tspan></text></g><g class="b" transform="translate(153.204 28.878)"><text class="c" transform="translate(0 10)"><tspan x="0" y="0">Porttitor amet massa Done cporttitor </tspan></text><text class="c" transform="translate(0 32.725)"><tspan x="0" y="0">dolor et nisl molestie ium feliscon</tspan></text></g></g><g transform="translate(306.773 674.198)"><g class="b" transform="translate(0 1.234)"><text class="d" transform="translate(0 7)"><tspan x="0" y="0">UNIVERSITY OF LOREM</tspan></text></g><g class="b" transform="translate(152.677 0)"><text class="d" transform="translate(0 7)"><tspan x="0" y="0">CERTIFICATE OF WEB TRAINIG</tspan></text></g><g class="b" transform="translate(0.499 24.936)"><text class="e" transform="translate(0 5)"><tspan x="0" y="0">2008 - 2010</tspan></text></g><g class="b" transform="translate(153.175 27.302)"><text class="c" transform="translate(0 10)"><tspan x="0" y="0">Porttitor amet massa Done cporttitor </tspan></text><text class="c" transform="translate(0 32.726)"><tspan x="0" y="0">dolor et nisl molestie ium feliscon</tspan></text></g></g><g class="b" transform="translate(352.442 624.803)"><text class="f" transform="translate(0 10)"><tspan x="0" y="0">EDUCATION</tspan></text></g><rect class="g" width="447.169" height="1.311" transform="translate(306.773 658.447)"/><circle class="j" cx="14.644" cy="14.644" r="14.644" transform="translate(306.931 622.573)"/><g transform="translate(310.881 628.502)"><path class="i" d="M382.791,763.928a2.778,2.778,0,0,1-2.742,0l-6.214-3.81s-.56-.345-.56.432v3.8c0,2,3.647,4.167,8.148,4.167s8.146-2.155,8.146-4.167v-4.02c0-.626-.392-.32-.392-.32Z" transform="translate(-370.727 -751.068)"/><path class="i" d="M391.266,755.39a.574.574,0,0,0,0-1.064l-9.464-4.733a1.833,1.833,0,0,0-1.738,0l-9.464,4.733a.574.574,0,0,0,0,1.064l9.464,5.806a1.828,1.828,0,0,0,1.738,0" transform="translate(-370.241 -749.374)"/><path class="i" d="M394.515,765.52v-6.412s0-.3-.176-.2a5.263,5.263,0,0,0-.625.392.54.54,0,0,0-.112.407v5.822a.171.171,0,0,1-.106.143,1.108,1.108,0,1,0,1.117,0,.167.167,0,0,1-.1-.141Z" transform="translate(-373.881 -750.899)"/></g><g transform="translate(578.917 1022.382)"><g class="b" transform="translate(0.025 20.596)"><text class="k" transform="translate(0 3)"><tspan x="0" y="0">Web developer, Design mate LTD</tspan></text><text class="k" transform="translate(0 14.755)"><tspan x="0" y="0">Phone: +123 5556 4455</tspan></text><text class="k" transform="translate(0 26.509)"><tspan x="0" y="0">Email: jensonsmith@gmail.com</tspan></text></g><g class="b" transform="translate(0 0)"><text class="l" transform="translate(0 5)"><tspan x="0" y="0">JENSEN SMITH</tspan></text></g></g><g class="b" transform="translate(306.552 1043.034)"><text class="k" transform="translate(0.221 3)"><tspan x="0" y="0">Director, Matrix media limited</tspan></text><text class="k" transform="translate(0.221 14.755)"><tspan x="0" y="0">Phone: +555 123 5566</tspan></text><text class="k" transform="translate(0 26.78)"><tspan x="0" y="0">Email: williamkleiman@gmail.com</tspan></text></g><g class="b" transform="translate(307.691 1022.435)"><text class="l" transform="translate(0 5)"><tspan x="0" y="0">WILLIAM KLEIMAN</tspan></text></g><g class="b" transform="translate(352.442 975.644)"><text class="f" transform="translate(0 10)"><tspan x="0" y="0">SUMMARY</tspan></text></g><rect class="g" width="447.169" height="1.311" transform="translate(306.773 1009.033)"/><circle class="h" cx="14.638" cy="14.638" r="14.638" transform="translate(306.935 973.433)"/><g transform="translate(314.502 978.608)"><path class="i" d="M395.883,1174.6a1.665,1.665,0,0,0-2.347.191l0,0-.359.425,2.548,2.14.343-.424A1.659,1.659,0,0,0,395.883,1174.6Z" transform="translate(-377.538 -1167.592)"/><path class="i" d="M386.572,1184.827a.555.555,0,0,0,.758.639l2.038-.884a1.662,1.662,0,0,0,.611-.454l.2-.225-2.547-2.14-.2.224a1.68,1.68,0,0,0-.343.683Z" transform="translate(-376.478 -1168.804)"/><path class="i" d="M388.677,1180.062l2.548,2.14,3.066-3.628-2.547-2.14Z" transform="translate(-376.817 -1167.949)"/><path class="i" d="M390.575,1168.8l-2.106-2a1.633,1.633,0,0,0-.7-.372v3.242h3.293A1.673,1.673,0,0,0,390.575,1168.8Z" transform="translate(-376.671 -1166.344)"/><path class="i" d="M387.886,1183.126l-2.037.884a1.665,1.665,0,0,1-2.281-1.915l.517-2.154a2.779,2.779,0,0,1,.57-1.136l4.322-5.112v-2.926h-3.885a.554.554,0,0,1-.554-.555h0v-3.883h-8.32a1.664,1.664,0,0,0-1.665,1.663V1183.6a1.667,1.667,0,0,0,1.665,1.665h11.094a1.668,1.668,0,0,0,1.666-1.665v-1.311l-.073.086A2.773,2.773,0,0,1,387.886,1183.126Zm-10.561-13.472h5.548a.555.555,0,1,1,0,1.111h-5.548a.555.555,0,1,1,0-1.111Zm0,3.366H386.2a.554.554,0,0,1,0,1.108h-8.876a.554.554,0,1,1-.009-1.108Zm0,3.33h6.661a.555.555,0,0,1,.009,1.109h-6.67a.555.555,0,0,1-.009-1.109Zm4.438,4.438h-4.438a.554.554,0,1,1-.009-1.109h4.447a.554.554,0,0,1,.009,1.109Z" transform="translate(-374.553 -1166.329)"/></g><g class="b" transform="translate(78.368 875.595)"><text class="f" transform="translate(0 10)"><tspan x="0" y="0">SKILLS</tspan></text></g><rect class="g" width="193.368" height="1.311" transform="translate(34.801 908.926)"/><g transform="translate(34.801 873.381)"><circle class="h" cx="14.638" cy="14.638" r="14.638"/><g transform="translate(5.246 5.241)"><path class="i" d="M58.461,1059.57a2.2,2.2,0,1,0-2.2-2.2A2.2,2.2,0,0,0,58.461,1059.57Z" transform="translate(-49.067 -1048.521)"/><path class="i" d="M48.152,1058.3l1.464.237a7.62,7.62,0,0,0,.858,2.071l-.84,1.176a.548.548,0,0,0,.057.709l1.558,1.558a.553.553,0,0,0,.709.059l1.176-.843a7.641,7.641,0,0,0,2.071.861l.238,1.461a.549.549,0,0,0,.542.461h2.206a.552.552,0,0,0,.542-.461l.238-1.461a7.594,7.594,0,0,0,2.071-.861l1.176.843a.553.553,0,0,0,.709-.059l1.556-1.558a.552.552,0,0,0,.059-.709L63.7,1060.6a7.625,7.625,0,0,0,.862-2.077l1.464-.238a.549.549,0,0,0,.458-.543v-2.2a.551.551,0,0,0-.458-.545l-1.464-.237a7.622,7.622,0,0,0-.858-2.071l.84-1.176a.547.547,0,0,0-.059-.707l-1.555-1.558a.548.548,0,0,0-.71-.058l-1.176.842a7.631,7.631,0,0,0-2.071-.86l-.237-1.462a.551.551,0,0,0-.542-.46H55.987a.549.549,0,0,0-.543.46l-.238,1.462a7.647,7.647,0,0,0-2.071.86l-1.175-.842a.548.548,0,0,0-.71.058l-1.558,1.558a.549.549,0,0,0-.057.707l.84,1.176a7.6,7.6,0,0,0-.858,2.071l-1.463.237a.553.553,0,0,0-.461.545v2.2A.553.553,0,0,0,48.152,1058.3Zm8.936-7.7a6.055,6.055,0,1,1-6.056,6.056,6.056,6.056,0,0,1,6.056-6.056Z" transform="translate(-47.694 -1047.252)"/><path class="i" d="M61.847,1062.039a3.881,3.881,0,0,0-1.124-1.763,3.262,3.262,0,0,1-5.093,0,3.881,3.881,0,0,0-1.124,1.763,4.9,4.9,0,0,0,6.913.424,4.776,4.776,0,0,0,.423-.424Z" transform="translate(-48.786 -1049.34)"/></g></g><g class="b" transform="translate(37.106 309.055)"><text class="c" transform="translate(0 10)"><tspan x="0" y="0">My Name Is Henry </tspan></text><text class="c" transform="translate(0 32.725)"><tspan x="0" y="0" xml:space="preserve">Watson lorem empus  id </tspan></text><text class="c" transform="translate(0 55.451)"><tspan x="0" y="0">fringilla molestie ornare </tspan></text><text class="c" transform="translate(0 78.176)"><tspan x="0" y="0">diam in olestie ipsum </tspan></text><text class="c" transform="translate(0 100.902)"><tspan x="0" y="0">etium rosn ollicitudin </tspan></text><text class="c" transform="translate(0 123.627)"><tspan x="0" y="0">est, porttitor amet </tspan></text><text class="c" transform="translate(0 146.353)"><tspan x="0" y="0">hitmassa Done </tspan></text><text class="m" transform="translate(0 168.078)"><tspan x="0" y="0">cporttitor dolor shit</tspan></text></g><g class="b" transform="translate(78.459 254.491)"><text class="f" transform="translate(0 10)"><tspan x="0" y="0">PERSONAL INFO</tspan></text></g><rect class="g" width="193.368" height="1.311" transform="translate(34.801 288.773)"/><g transform="translate(34.801 252.279)"><circle class="n" cx="14.638" cy="14.638" r="14.638"/><path class="i" d="M59.391,320.621c-.448-.071-.458-1.3-.458-1.3a6.275,6.275,0,0,0,1.606-3.064c.774,0,1.252-1.869.479-2.525.033-.692,1-5.431-3.878-5.431s-3.918,4.739-3.877,5.431c-.773.656-.3,2.525.478,2.525a6.284,6.284,0,0,0,1.607,3.064s-.01,1.234-.461,1.3c-1.446.231-6.857,2.613-6.857,5.227h18.2c0-2.614-5.4-5-6.857-5.227Z" transform="translate(-42.502 -302.435)"/></g><g class="b" transform="translate(37.106 794.915)"><text class="o" transform="translate(0 5)"><tspan x="0" y="0">Skype: </tspan></text><text class="p" transform="translate(0.172 20.838)"><tspan x="0" y="0">username</tspan></text></g><g class="b" transform="translate(36.427 749.931)"><text class="o" transform="translate(0 5)"><tspan x="0" y="0">Website: </tspan></text><text class="p" transform="translate(1.852 20.838)"><tspan x="0" y="0">jwatson.com</tspan></text></g><g class="b" transform="translate(36.427 704.946)"><text class="o" transform="translate(0 5)"><tspan x="0" y="0">Email: </tspan></text><text class="p" transform="translate(1.852 20.838)"><tspan x="0" y="0">johnwatson@gmail.com</tspan></text></g><g class="b" transform="translate(37.106 659.962)"><text class="o" transform="translate(0 5)"><tspan x="0" y="0">Home: </tspan></text><text class="p" transform="translate(0.172 20.837)"><tspan x="0" y="0">02800200</tspan></text></g><g class="b" transform="translate(37.106 614.907)"><text class="o" transform="translate(0 5)"><tspan x="0" y="0">Mobile: </tspan></text><text class="p" transform="translate(0.172 20.838)"><tspan x="0" y="0">02800200</tspan></text></g><g class="b" transform="translate(37.278 569.924)"><text class="o" transform="translate(0.135 5)"><tspan x="0" y="0">Address: </tspan></text><text class="p" transform="translate(0 20.838)"><tspan x="0" y="0">12th Avenue Street Australia 40000</tspan></text></g><g class="b" transform="translate(78.368 518.476)"><text class="f" transform="translate(0 10)"><tspan x="0" y="0">CONTACT</tspan></text></g><rect class="g" width="193.368" height="1.311" transform="translate(34.801 551.608)"/><g transform="translate(34.802 516.263)"><circle class="n" cx="14.638" cy="14.638" r="14.638"/><g transform="translate(7.268 6.713)"><path class="i" d="M52.669,626.183a.634.634,0,0,1-.614.651H50.718a.651.651,0,0,1,0-1.3h1.334a.633.633,0,0,1,.615.648Zm0,3.627a.633.633,0,0,0-.614-.649H50.718a.65.65,0,0,0,0,1.3h1.334a.632.632,0,0,0,.615-.65h0Zm0,3.626a.631.631,0,0,0-.613-.648H50.718a.65.65,0,0,0,0,1.3h1.334a.632.632,0,0,0,.615-.65h0Zm0,3.627a.631.631,0,0,0-.613-.648H50.718a.65.65,0,0,0,0,1.3h1.334a.632.632,0,0,0,.615-.65h0Zm12.177-12.655v14.436a.71.71,0,0,1-.709.707H52.106a.707.707,0,0,1-.707-.707v-.621h.654a1.162,1.162,0,0,0,0-2.319H51.4V634.6h.654a1.162,1.162,0,0,0,0-2.32H51.4v-1.3h.654a1.162,1.162,0,0,0,0-2.319H51.4v-1.3h.654a1.162,1.162,0,0,0,0-2.319H51.4v-.62a.706.706,0,0,1,.705-.709H64.137a.709.709,0,0,1,.709.709Zm-8.032,5.311c.016-.212.149-.438.323-.413a4.655,4.655,0,0,1,.846.474c.47.243,1.231-1.632.878-1.854a6.417,6.417,0,0,0-.823-.525.974.974,0,0,0-.163-.034,2.352,2.352,0,0,0-2.592,2.083,2.326,2.326,0,0,0-.013.3c-.051.609-.076,1.218-.092,1.83h0v.1h0c.014.611.041,1.222.092,1.831a2.35,2.35,0,0,0,2.311,2.39,2.234,2.234,0,0,0,.295-.013.907.907,0,0,0,.163-.029,6.247,6.247,0,0,0,.823-.529c.35-.219-.41-2.093-.878-1.852a4.763,4.763,0,0,1-.846.473c-.172.023-.307-.2-.323-.416-.044-.552,0-1.264,0-1.851h0v-.1h0c0-.588-.041-1.3,0-1.856Zm3.053,3.5a2.264,2.264,0,0,0,0-3.2l-.469.473a1.592,1.592,0,0,1,0,2.252h0Zm.834.835a3.443,3.443,0,0,0,0-4.862l-.47.468a2.773,2.773,0,0,1,0,3.918Zm.809-5.681-.469.47a3.918,3.918,0,0,1,0,5.541h0l.469.47a4.591,4.591,0,0,0,0-6.481Z" transform="translate(-50.103 -623.699)"/></g></g><g class="b" transform="translate(34.801 182.706)"><text class="q" transform="translate(0 9)"><tspan x="0" y="0">USER EXPERINCE DESIGNER</tspan></text></g><g class="b" transform="translate(546.42 182.989)"><text class="r" transform="translate(0 9)"><tspan x="0" y="0">WWW.JWATSON.COM</tspan></text></g><g class="b" transform="translate(34.472 57.171)"><text class="s" transform="translate(0 30)"><tspan x="0" y="0">JENNIFER</tspan></text><text class="s" transform="translate(0.84 75.059)"><tspan x="0" y="0">WATSON</tspan></text></g><rect class="g" width="722.564" height="1.311" transform="translate(34.801 167.331)"/><rect class="g" width="722.564" height="1.311" transform="translate(34.801 214.434)"/><g transform="translate(36.632 931.268)"><g transform="translate(0 0)"><g class="b"><text class="t" transform="translate(0 5)"><tspan x="0" y="0">SKILL 01</tspan></text></g></g><g transform="translate(0 27.138)"><g class="b" transform="translate(0 0)"><text class="t" transform="translate(0 5)"><tspan x="0" y="0">SKILL 02</tspan></text></g></g><g transform="translate(0 54.275)"><g class="b" transform="translate(0 0)"><text class="t" transform="translate(0 5)"><tspan x="0" y="0">SKILL 03</tspan></text></g></g><g transform="translate(0 81.411)"><g class="b" transform="translate(0 0)"><text class="t" transform="translate(0 5)"><tspan x="0" y="0">SKILL 04</tspan></text></g></g><g transform="translate(0 108.549)"><g class="b" transform="translate(0 0)"><text class="t" transform="translate(0 5)"><tspan x="0" y="0">SKILL 05</tspan></text></g></g></g><g transform="translate(0 0.529)"><rect width="803.225" height="5.877"/></g></g></g></svg>